<?xml version="1.0" encoding="utf-8"?>
<!-- Generator: Adobe Illustrator 15.0.2, SVG Export Plug-In . SVG Version: 6.00 Build 0)  -->
<!DOCTYPE svg PUBLIC "-//W3C//DTD SVG 1.1//EN" "http://www.w3.org/Graphics/SVG/1.1/DTD/svg11.dtd">
<svg version="1.1" id="レイヤー_1" xmlns="http://www.w3.org/2000/svg" xmlns:xlink="http://www.w3.org/1999/xlink" x="0px"
	 y="0px" width="361px" height="138.775px" viewBox="0 0 361 138.775" enable-background="new 0 0 361 138.775"
	 xml:space="preserve">
<g>
	<path fill="none" stroke="#FFFFFF" stroke-linecap="round" stroke-linejoin="round" stroke-miterlimit="10" d="M232.209,72.415
		c-2.902-1.92-6.836-2.857-11.801-2.857c-4.916,0-9.93,1.173-15.082,3.607c-0.889,0.421-1.779,0.841-2.668,1.267
		c-4.26,2.104-8.475,4.444-12.641,7.069c-0.236-0.094-0.471-0.232-0.709-0.327c-1.17-0.563-2.289-1.171-3.418-1.779
		c-0.373-0.233-0.795-0.47-1.174-0.702c-0.891-0.518-1.729-1.027-2.572-1.547c0.889-0.421,1.732-0.797,2.572-1.221
		c1.031-0.467,2.063-0.98,3.096-1.449c0.514-0.234,1.027-0.47,1.496-0.702c1.361-0.562,2.67-1.122,3.934-1.591
		c-1.264-0.145-2.57-0.375-3.934-0.799c-0.795-0.232-1.637-0.563-2.48-0.889c-0.75-0.327-1.453-0.657-2.109-0.98
		c-1.309-0.612-2.525-1.224-3.559-1.828c-0.188,0.142-0.42,0.279-0.605,0.376c-1.5,0.935-2.997,1.637-4.542,2.198
		c-0.515,0.188-1.034,0.329-1.594,0.47c-1.173,0.329-2.295,0.606-3.325,0.793c-0.981,0.189-1.826,0.333-2.623,0.377
		c0.845,0.187,1.686,0.42,2.623,0.798c0.841,0.325,1.731,0.749,2.67,1.262c0.702,0.425,1.454,0.843,2.249,1.313
		c1.215,0.705,2.479,1.498,3.789,2.391c-1.259,0.563-2.523,1.121-3.789,1.729c-1.315,0.563-2.575,1.17-3.796,1.731
		c-0.375-0.232-0.751-0.516-1.123-0.75c-2.154-1.5-4.308-2.901-6.557-4.307c-2.154-1.313-4.356-2.528-6.555-3.605
		c-0.471-0.236-0.938-0.469-1.407-0.656c-2.762-1.268-5.525-2.25-8.383-2.995c-2.811-0.75-5.667-1.126-8.568-1.126
		c-1.736,0-3.514,0.188-5.293,0.604c-1.78,0.428-3.418,1.078-4.873,1.923c-1.45,0.89-2.622,2.013-3.557,3.462
		c-0.889,1.408-1.358,3.046-1.358,4.973c0,2.244,0.703,4.211,2.06,5.994c1.358,1.73,3.138,3.137,5.293,4.26
		c2.154,1.127,4.543,1.967,7.117,2.577c2.578,0.56,5.059,0.842,7.447,0.842c1.687,0,3.419-0.188,5.293-0.66
		c1.871-0.462,3.417-1.073,4.682-1.819c0.141-0.236,0.189-0.425,0.047-0.563c-0.094-0.096-0.279-0.096-0.421,0.092
		c-1.171,0.752-2.576,1.307-4.26,1.688c-1.639,0.327-3.28,0.514-4.822,0.514c-2.25,0-4.592-0.279-6.982-0.84
		c-2.433-0.607-4.634-1.451-6.742-2.574c-2.062-1.127-3.748-2.488-5.104-4.078c-1.314-1.637-1.968-3.467-1.968-5.43
		c0-1.925,0.421-3.518,1.312-4.781c0.844-1.308,1.965-2.344,3.325-3.089c1.407-0.75,2.855-1.266,4.354-1.547
		c1.546-0.281,3.044-0.419,4.452-0.419c5.245,0,10.396,1.308,15.501,3.978c0.935,0.517,1.919,1.031,2.857,1.546
		c4.075,2.292,8.102,4.824,12.081,7.682c-1.216,0.473-2.436,0.981-3.652,1.406c-1.217,0.47-2.481,0.842-3.794,1.074
		c-1.591-1.023-3.185-1.92-4.634-2.67c-0.516-0.234-1.031-0.468-1.547-0.701c-2.014-0.84-3.839-1.266-5.479-1.266
		c-0.936,0-1.875,0.188-2.949,0.563c-1.029,0.376-1.547,0.938-1.547,1.688c0,0.749,0.33,1.362,0.937,1.829
		c0.61,0.463,1.404,0.798,2.296,1.078c0.936,0.229,1.918,0.416,2.996,0.514c1.076,0.137,2.061,0.188,2.998,0.188
		c0.748,0,1.544,0,2.295-0.051c0.887-0.042,1.826-0.184,2.762-0.273c1.591,1.123,3.23,2.387,4.916,3.791
		c1.685,1.354,3.513,2.758,5.434,4.169c-1.358,0.747-2.623,1.446-3.793,2.104c-1.217,0.659-2.388,1.22-3.56,1.592
		c-1.265-0.372-2.484-0.745-3.699-1.026c-0.702-0.187-1.407-0.28-2.061-0.376c-0.471-0.043-0.938-0.043-1.407-0.043
		c-0.936,0-1.826,0.182-2.715,0.559c-0.843,0.377-1.312,0.89-1.312,1.547c0,0.658,0.517,1.122,1.45,1.359
		c0.939,0.229,1.875,0.375,2.811,0.375c0.377,0,0.75,0,1.173-0.049c0.513-0.098,1.125-0.188,1.778-0.326
		c1.077-0.237,2.204-0.563,3.325-0.982c1.497,0.745,3.093,1.64,4.685,2.666c1.121,0.701,2.198,1.498,3.324,2.389
		c0.466,0.424,0.983,0.846,1.499,1.266c-0.515,0.328-1.033,0.658-1.499,0.94c-1.639,0.979-3.187,1.823-4.684,2.435
		c-1.965,0.84-3.744,1.262-5.432,1.262c-0.563,0-1.17-0.043-1.731-0.092c-0.47,0-0.893-0.094-1.265-0.188
		c-0.093-0.046-0.188-0.046-0.329-0.093c-0.143-0.189-0.283-0.232-0.423-0.143c-0.094,0.094-0.094,0.233,0.048,0.377
		c0.232,0.139,0.468,0.233,0.703,0.326c1.076,0.47,2.154,0.657,3.275,0.657c1.641,0,3.512-0.47,5.574-1.409
		c1.407-0.654,2.811-1.356,4.263-2.199c0.701-0.422,1.45-0.89,2.249-1.357c0.891,0.846,1.779,1.689,2.67,2.53
		c1.357,1.356,2.624,2.716,3.789,4.077c-1.259,1.729-2.243,3.557-2.994,5.43c-0.375,0.89-0.609,1.733-0.795,2.67
		c-0.239,0.982-0.331,1.963-0.331,2.998c0,1.123,0.092,2.154,0.331,3.138c0.232,1.125,0.606,2.153,1.169,3.093
		c0.84,1.4,1.967,2.198,3.373,2.434c0.232,0,0.469,0.049,0.75,0.049c1.4,0,2.521-0.375,3.414-1.176
		c0.328-0.276,0.609-0.604,0.846-1.026c0.979-1.448,1.455-3.231,1.455-5.386c0-2.105-0.52-4.261-1.502-6.557
		c-0.234-0.561-0.518-1.123-0.799-1.688c-0.893-1.686-2.014-3.371-3.32-4.966c0.934-1.03,1.824-1.966,2.713-2.854
		c0.188-0.233,0.375-0.425,0.607-0.654c0.709-0.703,1.451-1.404,2.301-2.109c0.793,0.471,1.545,0.895,2.289,1.313
		c1.873,0.982,3.746,1.78,5.574,2.436c2.576,0.891,5.014,1.268,7.354,1.122c0.375-0.187,0.375-0.324,0-0.511
		c-2.202-0.097-4.401-0.611-6.694-1.596c-2.017-0.891-4.076-2.018-6.233-3.371c-0.229-0.14-0.515-0.328-0.795-0.518
		c0.28-0.187,0.563-0.375,0.795-0.516c2.487-1.591,4.972-2.902,7.446-3.981c1.127,0.426,2.25,0.754,3.279,0.938
		c0.894,0.188,1.782,0.281,2.623,0.328h0.426c0.981,0,2.06-0.14,3.228-0.42c1.172-0.328,1.78-0.847,1.78-1.595
		c0-1.123-1.125-1.73-3.37-1.73c-0.703,0-1.359,0.045-2.063,0.141c-0.515,0.092-1.029,0.188-1.541,0.28
		c-1.267,0.33-2.531,0.656-3.89,1.076c-2.438-1.027-5.062-2.574-7.92-4.633c-0.136-0.145-0.281-0.238-0.418-0.329
		c0.137-0.096,0.282-0.234,0.418-0.329c1.498-1.027,3.002-2.107,4.453-3.09c1.545-1.129,3.09-2.249,4.588-3.324
		c0.938,0.229,1.873,0.42,2.856,0.511c0.519,0.046,0.981,0.046,1.451,0.098h1.407c1.354,0,2.668-0.052,3.935-0.233
		c1.312-0.146,2.433-0.421,3.416-0.797c1.033-0.374,1.828-0.842,2.437-1.356c0.61-0.563,0.938-1.218,0.938-1.97
		c0-0.749-0.235-1.313-0.75-1.686c-0.47-0.374-1.358-0.563-2.623-0.563c-1.731,0-3.604,0.42-5.664,1.217
		c-1.03,0.379-2.062,0.85-3.094,1.405c-1.029,0.563-2.104,1.169-3.185,1.876c-1.593-0.426-3.093-0.895-4.541-1.408
		c-1.451-0.559-2.904-1.172-4.31-1.824c4.028-2.53,8.006-4.774,12.033-6.79c0.702-0.373,1.45-0.7,2.153-1.03
		c4.729-2.248,9.367-3.372,13.862-3.372c1.972,0,3.933,0.139,5.853,0.467c1.875,0.33,3.654,0.889,5.201,1.592
		c1.59,0.705,2.854,1.595,3.795,2.674c0.981,1.073,1.447,2.389,1.447,3.979c0,2.152-0.56,4.029-1.687,5.669
		c-1.121,1.595-2.572,2.951-4.4,4.022c-1.823,1.082-3.937,1.927-6.227,2.483c-2.345,0.613-4.687,0.891-6.979,0.891
		c-1.406,0-3-0.094-4.729-0.325c-1.779-0.192-3.799-0.798-6.141-1.78c-0.139-0.094-0.279-0.094-0.375,0
		c-0.045,0.095,0,0.187,0.145,0.377c1.729,0.749,3.65,1.355,5.668,1.774c2.012,0.475,4.023,0.705,5.896,0.705
		c2.768,0,5.338-0.282,7.818-0.891c2.438-0.56,4.592-1.405,6.465-2.533c1.873-1.119,3.373-2.569,4.498-4.304
		c1.121-1.73,1.684-3.795,1.684-6.091C236.611,76.626,235.115,74.334,232.209,72.415z M157.981,85.245
		c-0.845,0.098-1.688,0.146-2.532,0.146c-0.936,0-1.871-0.098-2.807-0.193c-0.984-0.137-1.875-0.328-2.671-0.557
		c-0.843-0.281-1.498-0.607-2.012-1.031c-0.517-0.424-0.75-0.896-0.75-1.501c0-0.468,0.421-0.843,1.265-1.03
		c0.795-0.232,1.638-0.33,2.481-0.33c1.171,0,2.483,0.377,4.028,1.127c0.936,0.467,1.92,1.032,2.998,1.688
		c0.653,0.419,1.404,0.893,2.154,1.455C159.43,85.108,158.683,85.198,157.981,85.245z M157.981,98.594
		c-0.516,0.051-0.984,0.097-1.407,0.097c-0.702,0-1.31-0.046-1.872-0.188c-0.611-0.139-0.89-0.377-0.89-0.797
		c0-0.33,0.33-0.658,0.982-0.89c0.655-0.233,1.407-0.376,2.156-0.376c0.328,0,0.655,0.049,1.031,0.049
		c1.265,0.186,2.622,0.559,4.121,1.217C160.555,98.172,159.196,98.456,157.981,98.594z M202.658,97.706
		c0.607-0.096,1.221-0.139,1.779-0.139c1.078,0,1.828,0.139,2.152,0.373c0.33,0.23,0.473,0.467,0.473,0.605
		c0,0.422-0.375,0.748-1.125,1.031c-0.75,0.234-1.545,0.376-2.484,0.376c-0.232,0-0.512-0.051-0.795-0.051
		c-1.311-0.091-2.762-0.464-4.447-1.076C199.758,98.221,201.207,97.846,202.658,97.706z M202.658,84.172
		c1.221-0.66,2.342-1.218,3.469-1.686c1.781-0.756,3.465-1.128,5.057-1.128c0.844,0,1.545,0.187,2.109,0.468
		c0.607,0.282,0.887,0.701,0.887,1.314c0,0.469-0.279,0.936-0.887,1.313c-0.564,0.374-1.266,0.654-2.109,0.842
		c-0.846,0.234-1.641,0.371-2.48,0.421c-0.848,0.096-1.496,0.139-2.016,0.139c-1.08,0-2.105-0.043-3.184-0.139
		c-0.283,0-0.563-0.05-0.846-0.05c-0.746-0.09-1.451-0.184-2.199-0.273C201.207,84.922,201.957,84.543,202.658,84.172z
		 M177.04,73.958c-0.325-0.231-0.703-0.418-1.027-0.604c-1.034-0.655-2.062-1.172-3.044-1.688c1.027-0.282,2.06-0.563,3.044-0.889
		c1.497-0.518,2.949-1.173,4.259-1.876c0.094,0.048,0.189,0.095,0.283,0.144c1.306,0.749,2.716,1.404,4.164,2.016
		c0.1,0.044,0.188,0.044,0.33,0.091c1.496,0.607,2.951,1.266,4.26,1.873c0.146,0.047,0.24,0.096,0.334,0.143
		c-0.094,0.047-0.234,0.047-0.334,0.096c-1.309,0.467-2.574,0.979-3.791,1.495c-0.279,0.144-0.516,0.28-0.799,0.376
		c-1.076,0.47-2.197,0.984-3.32,1.495c-0.279-0.139-0.563-0.323-0.842-0.511C179.337,75.362,178.211,74.66,177.04,73.958z
		 M176.012,80.235c0.232-0.094,0.468-0.232,0.745-0.375c1.171-0.562,2.438-1.17,3.657-1.824c0.047,0,0.09,0.047,0.141,0.047
		c1.212,0.793,2.433,1.59,3.65,2.293c0.188,0.094,0.332,0.188,0.514,0.281c1.127,0.655,2.248,1.314,3.42,1.967
		c-1.172,0.799-2.293,1.549-3.42,2.246c-0.094,0.095-0.182,0.146-0.232,0.191c-1.215,0.792-2.436,1.595-3.697,2.435
		c-0.092-0.097-0.141-0.144-0.232-0.185c-1.268-0.938-2.482-1.879-3.702-2.814c-0.279-0.232-0.56-0.463-0.841-0.654
		c-1.034-0.751-2.017-1.5-3.044-2.199C173.995,81.173,175.028,80.704,176.012,80.235z M183.363,91.66
		c0.422,0.335,0.891,0.706,1.354,1.036c0.656,0.468,1.359,0.936,2.063,1.402c-0.701,0.518-1.404,1.031-2.063,1.545
		c-0.273,0.232-0.605,0.472-0.891,0.702c-0.936,0.7-1.871,1.454-2.807,2.2c-0.146-0.092-0.328-0.232-0.468-0.375
		c-1.079-0.887-2.156-1.73-3.186-2.57c-0.47-0.375-0.889-0.75-1.357-1.127c-0.795-0.607-1.547-1.17-2.299-1.777
		c0.752-0.472,1.504-0.984,2.299-1.406c0.232-0.141,0.468-0.277,0.745-0.422c1.033-0.609,2.061-1.218,3.043-1.871
		c0.238,0.188,0.521,0.373,0.754,0.517C181.537,90.258,182.475,90.959,183.363,91.66z M168.144,88.338
		c-1.689-1.22-3.375-2.39-5.06-3.469c1.36-0.229,2.624-0.607,3.889-1.073c1.264-0.423,2.526-0.938,3.839-1.405
		c0.095,0.051,0.187,0.098,0.281,0.139c1.312,0.984,2.62,1.926,3.885,2.955c0.377,0.279,0.703,0.514,1.034,0.797
		c1.027,0.797,2.01,1.594,3.042,2.338c-0.982,0.66-2.015,1.266-2.999,1.877h-0.043c-0.984,0.563-1.921,1.165-2.812,1.729
		c-0.702-0.564-1.406-1.122-2.107-1.688C170.112,89.787,169.128,89.084,168.144,88.338z M171.093,100.982
		c-0.517-0.326-1.031-0.651-1.5-0.985c-1.591-1.025-3.183-1.871-4.867-2.572c1.965-0.797,4.072-1.873,6.368-3.138
		c0.188-0.096,0.421-0.188,0.61-0.326c1.265,0.938,2.479,1.874,3.746,2.855c0.185,0.141,0.375,0.327,0.563,0.47
		c1.076,0.84,2.154,1.686,3.275,2.527c-0.844,0.652-1.639,1.264-2.48,1.874c-0.282,0.187-0.563,0.374-0.795,0.56
		c-0.563,0.378-1.126,0.707-1.686,1.031C173.245,102.485,172.173,101.731,171.093,100.982z M184.301,118.639
		c0.143,0.279,0.279,0.605,0.418,0.89c0.799,1.828,1.172,3.561,1.172,5.2c0,1.73-0.373,3.229-1.172,4.398
		c-0.797,1.221-1.824,1.828-3.037,1.828c-0.426,0-0.805-0.051-1.125-0.188c-0.985-0.281-1.831-0.891-2.626-1.918
		c-1.076-1.453-1.636-3.42-1.636-5.998c0-1.92,0.371-3.744,1.076-5.525c0.703-1.776,1.637-3.511,2.809-5.197
		c0.145,0.188,0.236,0.326,0.377,0.516C182.051,114.61,183.271,116.628,184.301,118.639z M184.719,106.086
		c-0.418,0.377-0.84,0.75-1.262,1.126c-0.936,0.891-1.775,1.825-2.529,2.812c-0.141-0.141-0.281-0.327-0.373-0.471
		c-0.796-0.981-1.593-1.92-2.439-2.809c-0.653-0.75-1.358-1.402-2.104-2.062c-0.378-0.329-0.707-0.608-1.078-0.892
		c0.371-0.232,0.7-0.468,1.078-0.75c0.468-0.329,0.935-0.651,1.404-0.98c0.844-0.611,1.732-1.22,2.623-1.877
		c0.188,0.146,0.326,0.236,0.516,0.377c0.886,0.703,1.777,1.313,2.667,1.924c0.519,0.324,0.981,0.648,1.495,0.98
		c0.564,0.373,1.128,0.748,1.689,1.076C185.846,105.059,185.283,105.571,184.719,106.086z M189.309,95.739
		c0.797,0.468,1.547,0.889,2.301,1.264c1.445,0.703,2.807,1.313,4.119,1.825c-2.15,0.985-4.309,2.202-6.42,3.606
		c-0.467,0.328-0.932,0.656-1.4,0.982c-1.029-0.654-2.018-1.355-3.043-2.105c-0.047-0.047-0.098-0.047-0.146-0.094
		c-0.979-0.703-2.012-1.497-3.037-2.297c0.883-0.652,1.869-1.354,2.855-2.154c0.043-0.044,0.137-0.094,0.182-0.141
		c0.939-0.75,1.826-1.452,2.674-2.152C188.049,94.898,188.701,95.317,189.309,95.739z M197.367,86.374
		c-2.576,1.682-5.244,3.561-8.059,5.664c-0.369,0.328-0.795,0.608-1.17,0.94c-1.076-0.848-2.199-1.688-3.371-2.483
		c0-0.048-0.051-0.048-0.051-0.048c-1.168-0.845-2.293-1.688-3.412-2.573c1.119-0.709,2.244-1.408,3.412-2.157
		c0.102-0.092,0.188-0.14,0.33-0.231c1.219-0.842,2.533-1.643,3.844-2.485c0.137,0.094,0.281,0.146,0.418,0.234
		C191.797,84.454,194.465,85.483,197.367,86.374z"/>
	<path fill="#FA5B1E" d="M232.209,72.415c-2.902-1.92-6.836-2.857-11.801-2.857c-4.916,0-9.93,1.173-15.082,3.607
		c-0.889,0.421-1.779,0.841-2.668,1.267c-4.26,2.104-8.475,4.444-12.641,7.069c-0.236-0.094-0.471-0.232-0.709-0.327
		c-1.17-0.563-2.289-1.171-3.418-1.779c-0.373-0.233-0.795-0.47-1.174-0.702c-0.891-0.518-1.729-1.027-2.572-1.547
		c0.889-0.421,1.732-0.797,2.572-1.221c1.031-0.467,2.063-0.98,3.096-1.449c0.514-0.234,1.027-0.47,1.496-0.702
		c1.361-0.562,2.67-1.122,3.934-1.591c-1.264-0.145-2.57-0.375-3.934-0.799c-0.795-0.232-1.637-0.563-2.48-0.889
		c-0.75-0.327-1.453-0.657-2.109-0.98c-1.309-0.612-2.525-1.224-3.559-1.828c-0.188,0.142-0.42,0.279-0.605,0.376
		c-1.5,0.935-2.997,1.637-4.542,2.198c-0.515,0.188-1.034,0.329-1.594,0.47c-1.173,0.329-2.295,0.606-3.325,0.793
		c-0.981,0.189-1.826,0.333-2.623,0.377c0.845,0.187,1.686,0.42,2.623,0.798c0.841,0.325,1.731,0.749,2.67,1.262
		c0.702,0.425,1.454,0.843,2.249,1.313c1.215,0.705,2.479,1.498,3.789,2.391c-1.259,0.563-2.523,1.121-3.789,1.729
		c-1.315,0.563-2.575,1.17-3.796,1.731c-0.375-0.232-0.751-0.516-1.123-0.75c-2.154-1.5-4.308-2.901-6.557-4.307
		c-2.154-1.313-4.356-2.528-6.555-3.605c-0.471-0.236-0.938-0.469-1.407-0.656c-2.762-1.268-5.525-2.25-8.383-2.995
		c-2.811-0.75-5.667-1.126-8.568-1.126c-1.736,0-3.514,0.188-5.293,0.604c-1.78,0.428-3.418,1.078-4.873,1.923
		c-1.45,0.89-2.622,2.013-3.557,3.462c-0.889,1.408-1.358,3.046-1.358,4.973c0,2.244,0.703,4.211,2.06,5.994
		c1.358,1.73,3.138,3.137,5.293,4.26c2.154,1.127,4.543,1.967,7.117,2.577c2.578,0.56,5.059,0.842,7.447,0.842
		c1.687,0,3.419-0.188,5.293-0.66c1.871-0.462,3.417-1.073,4.682-1.819c0.141-0.236,0.189-0.425,0.047-0.563
		c-0.094-0.096-0.279-0.096-0.421,0.092c-1.171,0.752-2.576,1.307-4.26,1.688c-1.639,0.327-3.28,0.514-4.822,0.514
		c-2.25,0-4.592-0.279-6.982-0.84c-2.433-0.607-4.634-1.451-6.742-2.574c-2.062-1.127-3.748-2.488-5.104-4.078
		c-1.314-1.637-1.968-3.467-1.968-5.43c0-1.925,0.421-3.518,1.312-4.781c0.844-1.308,1.965-2.344,3.325-3.089
		c1.407-0.75,2.855-1.266,4.354-1.547c1.546-0.281,3.044-0.419,4.452-0.419c5.245,0,10.396,1.308,15.501,3.978
		c0.935,0.517,1.919,1.031,2.857,1.546c4.075,2.292,8.102,4.824,12.081,7.682c-1.216,0.473-2.436,0.981-3.652,1.406
		c-1.217,0.47-2.481,0.842-3.794,1.074c-1.591-1.023-3.185-1.92-4.634-2.67c-0.516-0.234-1.031-0.468-1.547-0.701
		c-2.014-0.84-3.839-1.266-5.479-1.266c-0.936,0-1.875,0.188-2.949,0.563c-1.029,0.376-1.547,0.938-1.547,1.688
		c0,0.749,0.33,1.362,0.937,1.829c0.61,0.463,1.404,0.798,2.296,1.078c0.936,0.229,1.918,0.416,2.996,0.514
		c1.076,0.137,2.061,0.188,2.998,0.188c0.748,0,1.544,0,2.295-0.051c0.887-0.042,1.826-0.184,2.762-0.273
		c1.591,1.123,3.23,2.387,4.916,3.791c1.685,1.354,3.513,2.758,5.434,4.169c-1.358,0.747-2.623,1.446-3.793,2.104
		c-1.217,0.659-2.388,1.22-3.56,1.592c-1.265-0.372-2.484-0.745-3.699-1.026c-0.702-0.187-1.407-0.28-2.061-0.376
		c-0.471-0.043-0.938-0.043-1.407-0.043c-0.936,0-1.826,0.182-2.715,0.559c-0.843,0.377-1.312,0.89-1.312,1.547
		c0,0.658,0.517,1.122,1.45,1.359c0.939,0.229,1.875,0.375,2.811,0.375c0.377,0,0.75,0,1.173-0.049
		c0.513-0.098,1.125-0.188,1.778-0.326c1.077-0.237,2.204-0.563,3.325-0.982c1.497,0.745,3.093,1.64,4.685,2.666
		c1.121,0.701,2.198,1.498,3.324,2.389c0.466,0.424,0.983,0.846,1.499,1.266c-0.515,0.328-1.033,0.658-1.499,0.94
		c-1.639,0.979-3.187,1.823-4.684,2.435c-1.965,0.84-3.744,1.262-5.432,1.262c-0.563,0-1.17-0.043-1.731-0.092
		c-0.47,0-0.893-0.094-1.265-0.188c-0.093-0.046-0.188-0.046-0.329-0.093c-0.143-0.189-0.283-0.232-0.423-0.143
		c-0.094,0.094-0.094,0.233,0.048,0.377c0.232,0.139,0.468,0.233,0.703,0.326c1.076,0.47,2.154,0.657,3.275,0.657
		c1.641,0,3.512-0.47,5.574-1.409c1.407-0.654,2.811-1.356,4.263-2.199c0.701-0.422,1.45-0.89,2.249-1.357
		c0.891,0.846,1.779,1.689,2.67,2.53c1.357,1.356,2.624,2.716,3.789,4.077c-1.259,1.729-2.243,3.557-2.994,5.43
		c-0.375,0.89-0.609,1.733-0.795,2.67c-0.239,0.982-0.331,1.963-0.331,2.998c0,1.123,0.092,2.154,0.331,3.138
		c0.232,1.125,0.606,2.153,1.169,3.093c0.84,1.4,1.967,2.198,3.373,2.434c0.232,0,0.469,0.049,0.75,0.049
		c1.4,0,2.521-0.375,3.414-1.176c0.328-0.276,0.609-0.604,0.846-1.026c0.979-1.448,1.455-3.231,1.455-5.386
		c0-2.105-0.52-4.261-1.502-6.557c-0.234-0.561-0.518-1.123-0.799-1.688c-0.893-1.686-2.014-3.371-3.32-4.966
		c0.934-1.03,1.824-1.966,2.713-2.854c0.188-0.233,0.375-0.425,0.607-0.654c0.709-0.703,1.451-1.404,2.301-2.109
		c0.793,0.471,1.545,0.895,2.289,1.313c1.873,0.982,3.746,1.78,5.574,2.436c2.576,0.891,5.014,1.268,7.354,1.122
		c0.375-0.187,0.375-0.324,0-0.511c-2.202-0.097-4.401-0.611-6.694-1.596c-2.017-0.891-4.076-2.018-6.233-3.371
		c-0.229-0.14-0.515-0.328-0.795-0.518c0.28-0.187,0.563-0.375,0.795-0.516c2.487-1.591,4.972-2.902,7.446-3.981
		c1.127,0.426,2.25,0.754,3.279,0.938c0.894,0.188,1.782,0.281,2.623,0.328h0.426c0.981,0,2.06-0.14,3.228-0.42
		c1.172-0.328,1.78-0.847,1.78-1.595c0-1.123-1.125-1.73-3.37-1.73c-0.703,0-1.359,0.045-2.063,0.141
		c-0.515,0.092-1.029,0.188-1.541,0.28c-1.267,0.33-2.531,0.656-3.89,1.076c-2.438-1.027-5.062-2.574-7.92-4.633
		c-0.136-0.145-0.281-0.238-0.418-0.329c0.137-0.096,0.282-0.234,0.418-0.329c1.498-1.027,3.002-2.107,4.453-3.09
		c1.545-1.129,3.09-2.249,4.588-3.324c0.938,0.229,1.873,0.42,2.856,0.511c0.519,0.046,0.981,0.046,1.451,0.098h1.407
		c1.354,0,2.668-0.052,3.935-0.233c1.312-0.146,2.433-0.421,3.416-0.797c1.033-0.374,1.828-0.842,2.437-1.356
		c0.61-0.563,0.938-1.218,0.938-1.97c0-0.749-0.235-1.313-0.75-1.686c-0.47-0.374-1.358-0.563-2.623-0.563
		c-1.731,0-3.604,0.42-5.664,1.217c-1.03,0.379-2.062,0.85-3.094,1.405c-1.029,0.563-2.104,1.169-3.185,1.876
		c-1.593-0.426-3.093-0.895-4.541-1.408c-1.451-0.559-2.904-1.172-4.31-1.824c4.028-2.53,8.006-4.774,12.033-6.79
		c0.702-0.373,1.45-0.7,2.153-1.03c4.729-2.248,9.367-3.372,13.862-3.372c1.972,0,3.933,0.139,5.853,0.467
		c1.875,0.33,3.654,0.889,5.201,1.592c1.59,0.705,2.854,1.595,3.795,2.674c0.981,1.073,1.447,2.389,1.447,3.979
		c0,2.152-0.56,4.029-1.687,5.669c-1.121,1.595-2.572,2.951-4.4,4.022c-1.823,1.082-3.937,1.927-6.227,2.483
		c-2.345,0.613-4.687,0.891-6.979,0.891c-1.406,0-3-0.094-4.729-0.325c-1.779-0.192-3.799-0.798-6.141-1.78
		c-0.139-0.094-0.279-0.094-0.375,0c-0.045,0.095,0,0.187,0.145,0.377c1.729,0.749,3.65,1.355,5.668,1.774
		c2.012,0.475,4.023,0.705,5.896,0.705c2.768,0,5.338-0.282,7.818-0.891c2.438-0.56,4.592-1.405,6.465-2.533
		c1.873-1.119,3.373-2.569,4.498-4.304c1.121-1.73,1.684-3.795,1.684-6.091C236.611,76.626,235.115,74.334,232.209,72.415z
		 M157.981,85.245c-0.845,0.098-1.688,0.146-2.532,0.146c-0.936,0-1.871-0.098-2.807-0.193c-0.984-0.137-1.875-0.328-2.671-0.557
		c-0.843-0.281-1.498-0.607-2.012-1.031c-0.517-0.424-0.75-0.896-0.75-1.501c0-0.468,0.421-0.843,1.265-1.03
		c0.795-0.232,1.638-0.33,2.481-0.33c1.171,0,2.483,0.377,4.028,1.127c0.936,0.467,1.92,1.032,2.998,1.688
		c0.653,0.419,1.404,0.893,2.154,1.455C159.43,85.108,158.683,85.198,157.981,85.245z M157.981,98.594
		c-0.516,0.051-0.984,0.097-1.407,0.097c-0.702,0-1.31-0.046-1.872-0.188c-0.611-0.139-0.89-0.377-0.89-0.797
		c0-0.33,0.33-0.658,0.982-0.89c0.655-0.233,1.407-0.376,2.156-0.376c0.328,0,0.655,0.049,1.031,0.049
		c1.265,0.186,2.622,0.559,4.121,1.217C160.555,98.172,159.196,98.456,157.981,98.594z M202.658,97.706
		c0.607-0.096,1.221-0.139,1.779-0.139c1.078,0,1.828,0.139,2.152,0.373c0.33,0.23,0.473,0.467,0.473,0.605
		c0,0.422-0.375,0.748-1.125,1.031c-0.75,0.234-1.545,0.376-2.484,0.376c-0.232,0-0.512-0.051-0.795-0.051
		c-1.311-0.091-2.762-0.464-4.447-1.076C199.758,98.221,201.207,97.846,202.658,97.706z M202.658,84.172
		c1.221-0.66,2.342-1.218,3.469-1.686c1.781-0.756,3.465-1.128,5.057-1.128c0.844,0,1.545,0.187,2.109,0.468
		c0.607,0.282,0.887,0.701,0.887,1.314c0,0.469-0.279,0.936-0.887,1.313c-0.564,0.374-1.266,0.654-2.109,0.842
		c-0.846,0.234-1.641,0.371-2.48,0.421c-0.848,0.096-1.496,0.139-2.016,0.139c-1.08,0-2.105-0.043-3.184-0.139
		c-0.283,0-0.563-0.05-0.846-0.05c-0.746-0.09-1.451-0.184-2.199-0.273C201.207,84.922,201.957,84.543,202.658,84.172z
		 M177.04,73.958c-0.325-0.231-0.703-0.418-1.027-0.604c-1.034-0.655-2.062-1.172-3.044-1.688c1.027-0.282,2.06-0.563,3.044-0.889
		c1.497-0.518,2.949-1.173,4.259-1.876c0.094,0.048,0.189,0.095,0.283,0.144c1.306,0.749,2.716,1.404,4.164,2.016
		c0.1,0.044,0.188,0.044,0.33,0.091c1.496,0.607,2.951,1.266,4.26,1.873c0.146,0.047,0.24,0.096,0.334,0.143
		c-0.094,0.047-0.234,0.047-0.334,0.096c-1.309,0.467-2.574,0.979-3.791,1.495c-0.279,0.144-0.516,0.28-0.799,0.376
		c-1.076,0.47-2.197,0.984-3.32,1.495c-0.279-0.139-0.563-0.323-0.842-0.511C179.337,75.362,178.211,74.66,177.04,73.958z
		 M176.012,80.235c0.232-0.094,0.468-0.232,0.745-0.375c1.171-0.562,2.438-1.17,3.657-1.824c0.047,0,0.09,0.047,0.141,0.047
		c1.212,0.793,2.433,1.59,3.65,2.293c0.188,0.094,0.332,0.188,0.514,0.281c1.127,0.655,2.248,1.314,3.42,1.967
		c-1.172,0.799-2.293,1.549-3.42,2.246c-0.094,0.095-0.182,0.146-0.232,0.191c-1.215,0.792-2.436,1.595-3.697,2.435
		c-0.092-0.097-0.141-0.144-0.232-0.185c-1.268-0.938-2.482-1.879-3.702-2.814c-0.279-0.232-0.56-0.463-0.841-0.654
		c-1.034-0.751-2.017-1.5-3.044-2.199C173.995,81.173,175.028,80.704,176.012,80.235z M183.363,91.66
		c0.422,0.335,0.891,0.706,1.354,1.036c0.656,0.468,1.359,0.936,2.063,1.402c-0.701,0.518-1.404,1.031-2.063,1.545
		c-0.273,0.232-0.605,0.472-0.891,0.702c-0.936,0.7-1.871,1.454-2.807,2.2c-0.146-0.092-0.328-0.232-0.468-0.375
		c-1.079-0.887-2.156-1.73-3.186-2.57c-0.47-0.375-0.889-0.75-1.357-1.127c-0.795-0.607-1.547-1.17-2.299-1.777
		c0.752-0.472,1.504-0.984,2.299-1.406c0.232-0.141,0.468-0.277,0.745-0.422c1.033-0.609,2.061-1.218,3.043-1.871
		c0.238,0.188,0.521,0.373,0.754,0.517C181.537,90.258,182.475,90.959,183.363,91.66z M168.144,88.338
		c-1.689-1.22-3.375-2.39-5.06-3.469c1.36-0.229,2.624-0.607,3.889-1.073c1.264-0.423,2.526-0.938,3.839-1.405
		c0.095,0.051,0.187,0.098,0.281,0.139c1.312,0.984,2.62,1.926,3.885,2.955c0.377,0.279,0.703,0.514,1.034,0.797
		c1.027,0.797,2.01,1.594,3.042,2.338c-0.982,0.66-2.015,1.266-2.999,1.877h-0.043c-0.984,0.563-1.921,1.165-2.812,1.729
		c-0.702-0.564-1.406-1.122-2.107-1.688C170.112,89.787,169.128,89.084,168.144,88.338z M171.093,100.982
		c-0.517-0.326-1.031-0.651-1.5-0.985c-1.591-1.025-3.183-1.871-4.867-2.572c1.965-0.797,4.072-1.873,6.368-3.138
		c0.188-0.096,0.421-0.188,0.61-0.326c1.265,0.938,2.479,1.874,3.746,2.855c0.185,0.141,0.375,0.327,0.563,0.47
		c1.076,0.84,2.154,1.686,3.275,2.527c-0.844,0.652-1.639,1.264-2.48,1.874c-0.282,0.187-0.563,0.374-0.795,0.56
		c-0.563,0.378-1.126,0.707-1.686,1.031C173.245,102.485,172.173,101.731,171.093,100.982z M184.301,118.639
		c0.143,0.279,0.279,0.605,0.418,0.89c0.799,1.828,1.172,3.561,1.172,5.2c0,1.73-0.373,3.229-1.172,4.398
		c-0.797,1.221-1.824,1.828-3.037,1.828c-0.426,0-0.805-0.051-1.125-0.188c-0.985-0.281-1.831-0.891-2.626-1.918
		c-1.076-1.453-1.636-3.42-1.636-5.998c0-1.92,0.371-3.744,1.076-5.525c0.703-1.776,1.637-3.511,2.809-5.197
		c0.145,0.188,0.236,0.326,0.377,0.516C182.051,114.61,183.271,116.628,184.301,118.639z M184.719,106.086
		c-0.418,0.377-0.84,0.75-1.262,1.126c-0.936,0.891-1.775,1.825-2.529,2.812c-0.141-0.141-0.281-0.327-0.373-0.471
		c-0.796-0.981-1.593-1.92-2.439-2.809c-0.653-0.75-1.358-1.402-2.104-2.062c-0.378-0.329-0.707-0.608-1.078-0.892
		c0.371-0.232,0.7-0.468,1.078-0.75c0.468-0.329,0.935-0.651,1.404-0.98c0.844-0.611,1.732-1.22,2.623-1.877
		c0.188,0.146,0.326,0.236,0.516,0.377c0.886,0.703,1.777,1.313,2.667,1.924c0.519,0.324,0.981,0.648,1.495,0.98
		c0.564,0.373,1.128,0.748,1.689,1.076C185.846,105.059,185.283,105.571,184.719,106.086z M189.309,95.739
		c0.797,0.468,1.547,0.889,2.301,1.264c1.445,0.703,2.807,1.313,4.119,1.825c-2.15,0.985-4.309,2.202-6.42,3.606
		c-0.467,0.328-0.932,0.656-1.4,0.982c-1.029-0.654-2.018-1.355-3.043-2.105c-0.047-0.047-0.098-0.047-0.146-0.094
		c-0.979-0.703-2.012-1.497-3.037-2.297c0.883-0.652,1.869-1.354,2.855-2.154c0.043-0.044,0.137-0.094,0.182-0.141
		c0.939-0.75,1.826-1.452,2.674-2.152C188.049,94.898,188.701,95.317,189.309,95.739z M197.367,86.374
		c-2.576,1.682-5.244,3.561-8.059,5.664c-0.369,0.328-0.795,0.608-1.17,0.94c-1.076-0.848-2.199-1.688-3.371-2.483
		c0-0.048-0.051-0.048-0.051-0.048c-1.168-0.845-2.293-1.688-3.412-2.573c1.119-0.709,2.244-1.408,3.412-2.157
		c0.102-0.092,0.188-0.14,0.33-0.231c1.219-0.842,2.533-1.643,3.844-2.485c0.137,0.094,0.281,0.146,0.418,0.234
		C191.797,84.454,194.465,85.483,197.367,86.374z"/>
</g>
<g>
	<path fill="none" stroke="#FFFFFF" stroke-linecap="round" stroke-linejoin="round" stroke-miterlimit="10" d="M291.633,66.009
		c-1.16-2.004-2.625-3.7-4.471-5.01c0.146-0.307,0.225-0.848,0.225-1.465v-1.775c0-2.23-0.539-3.929-1.615-5.161
		c-1.08-1.237-2.32-2.396-3.631-3.241c-0.762-0.539-1.387-1.004-2.002-1.467c-0.623-0.463-1.152-0.925-1.697-1.312
		c-1.078-0.925-1.621-2.236-1.621-3.933c0-1.156,0.467-2.161,1.238-2.854c0.693-0.619,1.391-1.003,2.08-1.082
		c0.156-0.076,0.313-0.076,0.467-0.076c0.688,0,1.389,0.23,2.16,0.617c0.764,0.461,1.387,0.772,1.848,1.155
		c1.158,0.311,1.545,0.077,0.998-0.773c-0.451-0.46-1.154-0.999-1.998-1.462c-0.848-0.541-1.932-0.771-3.238-0.771h-0.232
		c-1.313,0-2.395,0.462-3.318,1.233c-1,0.851-1.467,2.16-1.467,4.012c0,1.851,0.467,3.394,1.467,4.628
		c1.004,1.231,2.08,2.389,3.318,3.469l0.076,0.075c1.234,1.084,2.465,2.242,3.549,3.394c1.072,1.159,1.625,2.624,1.625,4.239
		c0,0.695-0.084,1.315-0.23,1.78c-1.861-0.93-3.549-1.466-5.02-1.623c-0.461-0.075-0.852-0.157-1.313-0.157
		c-1.621,0-3.24,0.463-4.627,1.315c-1.467,0.846-2.16,1.929-2.16,3.236c0,1.393,0.537,2.542,1.545,3.626
		c0.998,1.158,2.547,1.697,4.773,1.697c0.625,0,1.154-0.078,1.777-0.157c2.705-0.463,4.699-2.004,6.02-4.625
		c3.012,2.157,4.471,5.245,4.471,9.252c0,1.854-0.467,3.471-1.387,4.785c-0.855,1.383-2.078,2.463-3.631,3.393
		c-1.459,0.923-3.166,1.617-5.006,2.154c-0.152,0-0.311,0.078-0.467,0.156c-1.697,0.383-3.318,0.617-4.785,0.617
		c-2.693,0-5.393-0.541-8.098-1.543c-2.617-1.002-4.938-2.543-6.777-4.547c0.539-1.621,0.92-3.318,1.311-5.018
		c0.313-1.619,0.459-3.235,0.459-4.776c0-4.863-0.85-9.023-2.621-12.575c-0.467-0.923-1.002-1.925-1.617-2.851
		c-1.543-2.472-3.469-4.859-5.781-7.175c3.162-2.545,5.088-5.627,5.781-9.177c0.146-0.923,0.229-1.927,0.229-2.854
		c0-0.923-0.08-1.847-0.229-2.695c-0.693-3.473-2.619-6.558-5.781-9.256c-4.018-3.473-9.334-5.166-15.889-5.166
		c-3.313,0-6.398,0.542-9.104,1.542c-2.159,0.693-4.086,1.697-5.938,2.853c-0.616,0.312-1.151,0.695-1.774,1.16
		c-0.306,0.462-0.071,0.537,0.771,0.232c0.313-0.232,0.703-0.39,1.006-0.62c1.933-1.002,3.938-1.772,6.173-2.314
		c2.543-0.538,5.321-0.848,8.182-0.848c6.158,0,11.175,1.467,14.955,4.242c3.703,2.853,5.629,6.479,5.629,10.873
		c0,3.856-2.159,7.095-6.563,9.796c-4.846-3.854-10.481-6.789-16.963-8.792c-3.931-1.233-7.701-2.082-11.41-2.543
		c-2.387-0.309-4.698-0.466-7.014-0.466c-3.856,0-7.63,0.309-11.336,1.081c-2.162,0.464-4.24,1.001-6.244,1.693
		c-1.162,0.389-2.242,0.85-3.32,1.313c-0.309,0.078-0.692,0.229-0.997,0.384c-0.854-0.463-1.472-1.001-2.011-1.619
		c-0.461-0.538-0.922-0.925-1.465-1.233c-0.154-0.075-0.226-0.075-0.306-0.151c0.08-0.078,0.149-0.078,0.306-0.155
		c1.465-0.924,2.937-1.695,4.473-2.389c1.078-0.463,2.158-0.852,3.32-1.159c2.465-0.693,4.935-1.079,7.479-1.079h0.313
		c0.146,0.385,0.219,0.619,0.219,0.771c0,0.153,0.086,0.386,0.234,0.77c0.313,0.465,0.697,0.697,1.15,0.619
		c0.391-0.079,0.623-0.385,0.623-0.927c0-0.309-0.07-0.541-0.156-0.614c-0.076-0.079-0.076-0.233-0.076-0.619
		c0.852,0,1.619,0.079,2.393,0.229c0.701,0.232,1.389,0.391,1.854,0.543c0.853,0,0.998-0.311,0.539-1.003
		c-1.006-0.848-2.694-1.233-5.088-1.233c-0.467-1.391-1.162-2.776-2.004-4.318c5.854,0,11.252,2.004,16.106,6.013
		c0.39,0.312,0.703,0.391,1.006,0.391c0.086,0,0.164-0.079,0.236-0.079c0.381-0.154,0.381-0.461,0-0.771
		c-0.072-0.08-0.15-0.153-0.236-0.231c-2.307-2.237-5.002-3.934-8.168-5.166c-3.239-1.234-6.476-1.929-9.637-1.929
		c-1.701-2.547-3.938-4.937-6.789-6.94c-0.695-0.46-1.31-0.927-2.011-1.31c-0.452-0.231-0.851-0.464-1.312-0.692
		c-1.387-0.773-2.93-1.313-4.473-1.777c-1.613-0.462-3.39-0.77-5.16-0.924c-1.006-0.078-2.086-0.155-3.162-0.155
		c-0.849,0-1.708,0.077-2.557,0.077c-0.92,0.078-1.925,0.232-2.846,0.385c-1.004,0.155-1.925,0.311-2.927,0.617
		c-1.544,0.463-3.081,1.003-4.481,1.777c-0.46,0.229-0.842,0.46-1.223,0.692c-0.774,0.383-1.391,0.85-2.089,1.31
		c-2.853,2.006-5.088,4.395-6.781,6.94c-3.163,0-6.403,0.693-9.638,1.929c-3.166,1.232-5.868,2.929-8.175,5.166
		c-0.079,0.079-0.157,0.152-0.235,0.231c-0.388,0.311-0.388,0.615,0,0.771c0.079,0,0.157,0.079,0.235,0.079
		c0.304,0,0.614-0.079,0.999-0.391c4.706-4.009,10.019-6.013,16.116-6.013c-0.846,1.542-1.544,2.929-2.004,4.318
		c-2.386,0-4.093,0.387-5.099,1.233c-0.45,0.692-0.296,1.003,0.552,1.003c0.453-0.152,1.155-0.311,1.85-0.543
		c0.764-0.149,1.534-0.229,2.393-0.229c0,0.385,0,0.54-0.085,0.619c-0.072,0.074-0.15,0.307-0.15,0.614
		c0,0.542,0.235,0.848,0.617,0.927c0.46,0.079,0.848-0.154,1.152-0.619c0.156-0.383,0.235-0.615,0.235-0.77
		c0-0.153,0.079-0.388,0.232-0.771h0.307c2.538,0,5.009,0.385,7.479,1.079c1.152,0.309,2.236,0.696,3.313,1.159
		c1.55,0.692,3.009,1.465,4.481,2.389c0.147,0.077,0.225,0.077,0.304,0.155c-0.079,0.076-0.157,0.076-0.304,0.151
		c-0.538,0.311-1.005,0.695-1.472,1.233c-0.539,0.617-1.155,1.156-2.004,1.619c-0.313-0.153-0.694-0.307-1.005-0.384
		c-1.077-0.464-2.16-0.926-3.313-1.313c-1.997-0.692-4.086-1.229-6.243-1.693c-3.701-0.772-7.48-1.081-11.337-1.081
		c-2.314,0-4.628,0.157-7.014,0.466c-3.7,0.462-7.483,1.311-11.416,2.543c-6.478,2.004-12.111,4.938-16.968,8.792
		c-4.392-2.701-6.553-5.938-6.553-9.796c0-4.396,1.925-8.021,5.626-10.873c3.779-2.775,8.792-4.242,14.964-4.242
		c5.469,0,10.175,1.083,14.346,3.24c0.304,0.152,0.685,0.31,0.999,0.542c0.849,0.305,1.08,0.229,0.77-0.232
		c-0.616-0.465-1.155-0.85-1.769-1.16c-1.854-1.154-3.786-2.157-5.939-2.853c-2.703-1-5.79-1.542-9.103-1.542
		c-6.56,0-11.876,1.693-15.887,5.166c-3.166,2.698-5.088,5.783-5.783,9.256c-0.157,0.85-0.235,1.772-0.235,2.695
		c0,0.929,0.078,1.933,0.235,2.854c0.695,3.55,2.617,6.632,5.783,9.177c-2.229,2.237-4.161,4.629-5.783,7.175
		c-0.078,0.075-0.157,0.229-0.235,0.384c-1.302-1.155-2.853-2.005-4.621-2.542c-1.775-0.467-3.319-0.773-4.706-0.773
		c-0.617,0-1.309,0.232-2.004,0.54c-0.31,0.308-0.388,0.615-0.231,0.847c0.157,0.312,0.539,0.312,0.999,0.156
		c1.394-0.156,2.859,0.075,4.556,0.617c1.693,0.617,3.233,1.697,4.777,3.391c-1.854,4.017-2.774,8.332-2.774,12.809
		c0,1.541,0.15,3.157,0.46,4.776c0.381,1.697,0.77,3.396,1.315,5.018c-1.854,2.004-4.167,3.545-6.795,4.547
		c-2.696,1.002-5.391,1.543-8.087,1.543c-1.472,0-3.088-0.234-4.784-0.617c-0.157-0.078-0.313-0.156-0.467-0.156
		c-1.851-0.537-3.541-1.231-5.006-2.154c-1.551-0.93-2.781-2.01-3.629-3.393c-0.92-1.314-1.387-2.934-1.387-4.785
		c0-4.007,1.465-7.095,4.471-9.252c1.312,2.621,3.319,4.162,6.019,4.625c0.613,0.079,1.151,0.157,1.769,0.157
		c2.235,0,3.779-0.539,4.784-1.697c1.005-1.083,1.544-2.233,1.544-3.626c0-1.309-0.695-2.392-2.16-3.236
		c-1.388-0.854-3.009-1.315-4.628-1.315c-0.467,0-0.849,0.082-1.309,0.082c-1.779,0.232-3.476,0.771-5.013,1.698
		c-0.164-0.464-0.231-1.084-0.231-1.78c0-1.615,0.538-3.081,1.54-4.239c1.006-1.15,2.082-2.31,3.392-3.394
		c0.078-0.075,0.235-0.231,0.313-0.309c1.151-1,2.235-2.08,3.162-3.235c1.077-1.234,1.622-2.777,1.622-4.628
		c0-1.852-0.467-3.161-1.472-4.012c-0.92-0.771-2.003-1.233-3.312-1.233h-0.236c-1.309,0-2.385,0.229-3.24,0.771
		c-0.842,0.463-1.537,1.002-1.997,1.462c-0.545,0.852-0.164,1.083,0.991,0.773c0.474-0.383,1.084-0.693,1.861-1.155
		c0.764-0.387,1.459-0.617,2.154-0.617c0.154,0,0.31,0,0.467,0.076c0.691,0.079,1.387,0.463,2.078,1.082
		c0.774,0.691,1.234,1.696,1.234,2.854c0,1.695-0.539,3.007-1.616,3.933c-0.545,0.387-1.083,0.85-1.696,1.312
		c-0.617,0.463-1.241,0.928-2.004,1.467c-1.309,0.847-2.549,2.004-3.632,3.241c-1.073,1.232-1.612,2.931-1.612,5.161v1.775
		c0,0.617,0.078,1.158,0.225,1.465c-1.847,1.31-3.313,3.006-4.471,5.01c-1.233,2.012-1.778,4.321-1.778,6.788
		c0,4.551,1.622,8.178,5.02,10.797c2.392,1.93,5.166,3.162,8.254,3.703c1.309,0.229,2.623,0.387,4.089,0.387
		c3.002,0,5.93-0.615,8.867-1.775c2.932-1.232,5.627-2.93,7.938-5.322c0.388,0.698,0.776,1.313,1.237,1.934
		c0.77,1.077,1.69,1.929,2.773,2.771c1.701,1.234,3.937,1.854,6.788,1.854c3.009,0,5.633-0.851,7.784-2.546
		c0.157-1.155-0.225-1.54-1.23-1.233c-0.848,0.694-1.847,1.158-3.009,1.544c-1.158,0.311-2.314,0.46-3.313,0.46
		c-2.314,0-4.324-0.69-5.857-2.004c-1.622-1.31-2.853-2.931-3.633-4.784c3.166-3.702,4.706-8.09,4.706-13.339
		c0-4.317-1.151-7.865-3.466-10.486c1.316-2.697,3.466-5.321,6.554-7.789c1.152,0.617,2.235,1.232,3.39,1.854
		c1.084,0.614,2.243,1.078,3.623,1.386c-3.162,4.009-4.778,8.712-4.778,14.035c0,3.395,0.773,6.25,2.239,8.714
		c1.541,2.391,3.084,4.477,4.774,6.172c0.313,0.308,0.624,0.386,0.78,0.075c0.147-0.231,0.147-0.464,0-0.62
		c-1.309-1.848-2.549-3.929-3.625-6.238c-1.081-2.396-1.697-5.171-1.697-8.333c0-2.854,0.46-5.322,1.387-7.401
		c0.92-2.082,2.161-4.008,3.701-5.63c4.164,1.002,8.411,1.466,12.803,1.466c2.082,0,4.085-0.075,6.018-0.308
		c3.006-0.39,5.851-1.007,8.557-1.932c4.317-1.542,8.485-3.469,12.337-5.783c0.77,0.311,1.618,0.694,2.47,1.161
		c0.456,0.15,0.842,0.382,1.23,0.613c0.467,0.229,0.849,0.463,1.315,0.771c-0.466,0.231-0.848,0.538-1.315,0.771
		c-3.7,2.543-7.479,4.547-11.26,6.244c-4.243,1.854-8.557,2.772-13.109,2.772h-0.225c-3.554-0.073-6.795-0.611-9.569-1.769
		c-0.306-0.153-0.616-0.153-0.841,0.079c-0.236,0.307-0.157,0.614,0.382,0.924c1.618,1.001,3.397,1.697,5.244,2.007
		c1.619,0.309,3.163,0.457,4.785,0.457h0.77c4.849,0,9.478-0.998,13.802-3.081c3.392-1.619,6.711-3.547,10.022-5.708
		c0.999-0.615,2.089-1.311,3.084-2.004c0.079,0.077,0.157,0.155,0.229,0.23c1.697,1.623,3.169,3.086,4.481,4.552
		c0.225,0.156,0.382,0.306,0.536,0.538c0.313,0.31,0.695,0.385,0.999,0.082c0.313-0.235,0.389-0.545,0.234-0.854
		c-0.538-0.849-1.155-1.544-1.769-2.313c-1.083-1.234-2.161-2.313-3.244-3.238c0.998-0.847,2.003-1.621,2.931-2.39
		c0.078-0.081,0.228-0.156,0.313-0.313c0.849-0.618,1.769-1.23,2.774-1.771c0.068,0,0.068,0,0.153,0.077
		c0.774,0.465,1.466,1.003,2.161,1.617c0.225,0.31,0.461,0.542,0.685,0.771c0.467,0.464,0.849,0.851,1.319,1.313
		c-0.471,0.54-0.92,1.235-1.319,1.854c-1.308,2.465-1.994,5.165-1.994,8.174c0,1.313,0.382,2.852,1.152,4.549
		c0.234,0.538,0.538,1.002,0.841,1.392c0.702,0.69,1.551,1.075,2.557,1.075c1.311,0,2.387-0.694,3.162-2.004
		c0.072-0.151,0.148-0.307,0.229-0.463c0.771-1.697,1.158-3.237,1.158-4.549c0-2.546-0.468-4.782-1.388-6.867
		c-0.545-1.151-1.166-2.232-1.933-3.159c0.615-0.689,1.313-1.313,1.933-1.927c0,0,0.072-0.079,0.072-0.157
		c0.694-0.613,1.465-1.23,2.319-1.693c0.998,0.542,1.918,1.154,2.769,1.771c0.078,0.155,0.228,0.23,0.313,0.313
		c0.92,0.77,1.926,1.543,2.932,2.39c-1.078,0.926-2.16,2.004-3.244,3.238c-0.615,0.77-1.23,1.465-1.77,2.313
		c-0.164,0.308-0.078,0.617,0.229,0.854c0.311,0.303,0.691,0.229,1.006-0.082c0.146-0.232,0.311-0.382,0.535-0.538
		c1.318-1.466,2.773-2.929,4.473-4.552c0.072-0.075,0.158-0.153,0.236-0.23c1.074,0.693,2.078,1.39,3.084,2.004
		c3.313,2.161,6.625,4.089,10.021,5.708c4.316,2.083,8.943,3.081,13.803,3.081h0.77c1.621,0,3.164-0.147,4.785-0.457
		c1.854-0.31,3.623-1.006,5.244-2.007c0.545-0.31,0.617-0.617,0.389-0.924c-0.23-0.231-0.545-0.231-0.85-0.079
		c-2.779,1.156-6.021,1.694-9.568,1.769h-0.229c-4.549,0-8.871-0.92-13.111-2.772c-3.771-1.697-7.551-3.701-11.252-6.244
		c-0.467-0.232-0.854-0.539-1.311-0.771c0.453-0.31,0.844-0.542,1.311-0.771c0.381-0.231,0.766-0.463,1.229-0.613
		c0.854-0.467,1.693-0.852,2.473-1.161c3.855,2.314,8.023,4.241,12.336,5.783c2.693,0.925,5.561,1.542,8.559,1.932
		c1.932,0.231,3.938,0.308,6.02,0.308c4.166,0,8.484-0.464,12.803-1.466c1.539,1.622,2.773,3.548,3.701,5.63
		c0.926,2.079,1.387,4.549,1.387,7.401c0,3.162-0.617,5.937-1.693,8.333c-1.082,2.312-2.32,4.393-3.631,6.238
		c-0.146,0.156-0.146,0.389,0,0.62c0.156,0.311,0.467,0.23,0.771-0.075c1.707-1.695,3.244-3.781,4.783-6.172
		c1.465-2.463,2.24-5.319,2.24-8.714c0-5.323-1.623-10.026-4.785-14.035c1.387-0.308,2.545-0.771,3.629-1.386
		c1.156-0.62,2.229-1.234,3.391-1.853c3.084,2.467,5.246,5.09,6.555,7.788c-2.314,2.621-3.471,6.168-3.471,10.486
		c0,5.249,1.545,9.637,4.703,13.339c-0.768,1.854-2.004,3.477-3.625,4.784c-1.545,1.313-3.545,2.004-5.863,2.004
		c-1,0-2.156-0.149-3.309-0.46c-1.154-0.386-2.16-0.85-3.008-1.544c-1.006-0.307-1.396,0.078-1.24,1.233
		c2.16,1.695,4.783,2.546,7.793,2.546c2.852,0,5.168-0.617,6.941-1.775c0.998-0.613,1.848-1.463,2.621-2.311
		c0.545-0.695,1.084-1.393,1.465-2.16c4.854,4.471,10.412,6.787,16.582,6.787c1.459,0,2.771-0.156,4.084-0.386
		c3.08-0.541,5.854-1.774,8.246-3.703c3.396-2.62,5.016-6.247,5.016-10.798C293.4,70.33,292.863,68.02,291.633,66.009z
		 M280.139,65.471c-0.305,0.073-0.539,0.073-0.771,0.073c-2.16,0-3.313-0.767-3.313-2.311c0-0.771,0.467-1.311,1.311-1.465
		c0.85-0.156,1.621-0.231,2.471-0.231h0.307c1.543,0,2.855,0.309,4.014,1.005C283.068,64.237,281.76,65.239,280.139,65.471z
		 M81.026,61.538h0.309c0.842,0,1.616,0.075,2.464,0.231c0.849,0.155,1.315,0.693,1.315,1.465c0,1.544-1.162,2.311-3.319,2.311
		c-0.235,0-0.461,0-0.77-0.075c-1.623-0.23-2.931-1.232-4.008-2.927C78.174,61.844,79.482,61.538,81.026,61.538z M105.161,66.323
		c0,3.081-0.617,5.857-2.004,8.326c-0.235,0.385-0.461,0.771-0.771,1.152c-0.467-1.309-0.767-2.622-0.998-3.854
		c-0.164-1.231-0.236-2.468-0.236-3.624c0-4.089,0.695-7.634,2.004-10.874C104.543,59.841,105.161,62.771,105.161,66.323z
		 M203.107,24.291c0.383,0.695,0.764,1.465,1.074,2.314c-2.625,0-5.176,0.307-7.48,0.927c-0.467,0.153-0.928,0.308-1.387,0.461
		c-0.623,0.155-1.311,0.385-1.936,0.616c-1.465,0.618-3.008,1.237-4.473,2.003c-0.691,0.31-1.383,0.62-2.08,1.003
		c-0.92-0.923-2.004-1.619-3.08-2.235c-0.391-0.152-0.775-0.385-1.166-0.538c0.391-0.231,0.775-0.464,1.166-0.692
		c1.691-1.003,3.393-1.852,5.16-2.701c0.926-0.462,1.846-0.848,2.852-1.235c0.539-0.229,1.076-0.464,1.621-0.612
		c1.078-0.39,2.158-0.618,3.32-0.851c1.623-0.31,3.391-0.463,5.236-0.463C202.25,22.98,202.641,23.674,203.107,24.291z
		 M184.824,33.083c-0.309,0.23-0.695,0.385-1.076,0.617c-0.311,0.232-0.699,0.46-1.006,0.693c-0.77,0.462-1.473,1.001-2.156,1.464
		c-0.703-0.463-1.388-1.001-2.158-1.464c-0.078-0.077-0.235-0.233-0.399-0.309c-0.607-0.386-1.152-0.695-1.69-1.003
		c0.538-0.542,1.083-1.002,1.69-1.467c0.164-0.074,0.321-0.154,0.399-0.23c0.77-0.535,1.455-1.076,2.158-1.538
		c0.684,0.461,1.387,1.003,2.156,1.538c0.307,0.157,0.695,0.466,1.006,0.695C184.129,32.389,184.516,32.773,184.824,33.083z
		 M164.463,16.351c1.084-0.774,2.157-1.471,3.313-2.084c0.545-0.31,1.169-0.542,1.783-0.772c0.841-0.308,1.769-0.618,2.698-0.921
		c1.002-0.234,1.923-0.467,2.927-0.62c0.92-0.154,1.926-0.311,2.846-0.384c0.849-0.08,1.708-0.08,2.557-0.08
		c1.076,0,2.072,0.08,3.162,0.153c1.692,0.155,3.463,0.464,5.16,0.931c0.926,0.303,1.846,0.614,2.705,0.921
		c0.612,0.231,1.223,0.464,1.768,0.772c1.156,0.613,2.244,1.31,3.32,2.084c1.387,1.152,2.772,2.542,4.014,4.163
		c-1.387,0.149-2.704,0.308-4.014,0.54c-1.162,0.229-2.242,0.461-3.32,0.691c-1.153,0.312-2.391,0.693-3.469,1.078
		c-0.39,0.079-0.69,0.234-1.004,0.309c-1.849,0.694-3.554,1.467-5.16,2.313c-1.09,0.619-2.164,1.234-3.162,1.852
		c-0.849-0.463-1.623-1.001-2.557-1.465c-0.92-0.54-1.847-1.003-2.846-1.466c-0.927-0.46-1.925-0.849-2.927-1.234
		c-0.313-0.073-0.616-0.229-1.005-0.309c-1.084-0.385-2.307-0.768-3.476-1.078c-1.077-0.23-2.16-0.462-3.313-0.691
		c-1.308-0.232-2.621-0.391-4.007-0.54C161.682,18.893,163.069,17.505,164.463,16.351z M172.256,30.612
		c-1.472-0.769-3.009-1.386-4.481-2.003c-0.609-0.231-1.309-0.461-1.925-0.616c-0.46-0.153-0.92-0.308-1.387-0.461
		c-2.313-0.62-4.856-0.927-7.479-0.927c0.31-0.851,0.698-1.619,1.08-2.314c0.467-0.617,0.852-1.31,1.155-2.004
		c1.854,0,3.629,0.153,5.244,0.463c1.152,0.23,2.236,0.46,3.313,0.851c0.545,0.148,1.083,0.383,1.619,0.612
		c1.005,0.389,1.933,0.773,2.862,1.235c1.002,0.46,1.923,0.924,2.927,1.464c0.92,0.464,1.926,1.082,2.846,1.621
		c0.236,0.077,0.399,0.231,0.545,0.311c-0.146,0.076-0.31,0.153-0.545,0.229c-0.991,0.463-1.925,1.078-2.846,1.777
		c-0.31,0.229-0.62,0.46-0.848,0.767C173.644,31.232,172.948,30.922,172.256,30.612z M146.654,47.658
		c-2.085,0.693-4.399,1.158-6.785,1.462c-2.011,0.235-4.093,0.313-6.25,0.313c-3.547,0-6.71-0.313-9.562-1.002
		c3.009-2.313,6.475-4.088,10.567-5.243c1.769-0.54,3.544-1.003,5.245-1.233c1.994-0.385,3.926-0.54,5.783-0.54
		c2.157,0,4.229,0.155,6.164,0.461c1.93,0.385,3.78,0.772,5.633,1.313C154.13,45.035,150.505,46.501,146.654,47.658z
		 M159.988,41.642c-4.393-1.47-8.867-2.237-13.566-2.237c-2.083,0-4.325,0.157-6.554,0.54c-2.089,0.311-4.171,0.851-6.4,1.468
		c-4.627,1.313-8.642,3.396-12.187,6.246c-1.309-0.31-2.627-0.693-3.936-1.08c-1.237-0.461-2.471-0.999-3.623-1.619
		c4.699-3.547,10.097-6.169,16.194-7.941c3.466-1.002,6.785-1.696,9.951-2.161c2.539-0.309,4.931-0.462,7.323-0.462
		c3.159,0,6.393,0.23,9.634,0.695c2.695,0.462,5.245,1.077,7.637,1.928c0.546,0.229,1.084,0.385,1.544,0.614
		c-0.545,0.311-0.998,0.695-1.544,1.003c-0.46,0.309-1.005,0.696-1.465,0.999C161.993,40.334,160.994,40.948,159.988,41.642z
		 M172.256,41.873c-0.616,0.462-1.24,0.925-1.857,1.391c-0.841,0.691-1.69,1.387-2.624,2.008c-0.071,0.071-0.149,0.071-0.229,0.149
		c-0.848-0.308-1.619-0.771-2.307-1.387c-0.231-0.231-0.467-0.387-0.777-0.54c-0.46-0.387-0.927-0.618-1.465-0.849
		c0.46-0.312,1.005-0.618,1.465-0.927c0.546-0.387,0.999-0.615,1.544-0.925c0.613-0.388,1.23-0.771,1.769-1.232
		c0.311-0.311,0.692-0.619,1.005-0.928c0.849,0.309,1.619,0.771,2.393,1.232c0.389,0.307,0.771,0.54,1.083,0.771
		c0.382,0.155,0.692,0.389,1.002,0.538C172.948,41.412,172.638,41.642,172.256,41.873z M175.184,39.331
		c-0.538-0.389-1.08-0.696-1.625-1.082c-0.383-0.23-0.836-0.464-1.303-0.77c-0.313-0.155-0.616-0.391-1.005-0.619
		c0.389-0.23,0.692-0.537,1.005-0.771c0.304-0.232,0.536-0.387,0.771-0.615c0.532-0.385,1.077-0.85,1.769-1.389
		c0.156,0.152,0.235,0.23,0.388,0.309c0.539,0.387,1.07,0.771,1.623,1.081c0.382,0.229,0.849,0.54,1.223,0.77
		c0.399,0.231,0.702,0.387,1.013,0.617c-0.311,0.31-0.692,0.54-1.013,0.771c-0.224,0.23-0.46,0.463-0.685,0.617
		c-0.538,0.462-1.09,0.925-1.778,1.385C175.419,39.561,175.334,39.484,175.184,39.331z M183.129,55.758
		c0,2.313-0.854,3.776-2.543,4.24c-1.708-0.464-2.557-1.929-2.557-4.24c0-2.854,0.849-5.557,2.557-8.101
		C182.275,50.202,183.129,52.902,183.129,55.758z M183.748,40.795c-0.545,0.463-1.09,0.925-1.547,1.232
		c-0.539,0.388-1.078,1.08-1.615,1.85c-0.539-0.77-1.084-1.462-1.623-1.85c-0.317-0.23-0.613-0.46-0.934-0.694
		c-0.303-0.306-0.607-0.615-0.991-0.926c0.306-0.233,0.688-0.463,0.991-0.693c0.321-0.151,0.545-0.383,0.781-0.54
		c0.692-0.539,1.237-0.925,1.776-1.312c0.537,0.387,1.076,0.771,1.768,1.312c0.461,0.389,0.93,0.693,1.396,1
		c0.07,0.081,0.229,0.161,0.381,0.233C183.977,40.484,183.82,40.638,183.748,40.795z M185.588,39.634
		c-0.686-0.46-1.23-0.923-1.768-1.385l-0.072-0.077c-0.467-0.387-1.006-0.849-1.619-1.312c0.529-0.386,1.152-0.694,1.619-1.004
		c0.15-0.153,0.299-0.23,0.453-0.383c0.623-0.385,1.24-0.85,1.939-1.389c0.604,0.539,1.301,1.004,1.84,1.389
		c0.313,0.229,0.623,0.46,0.928,0.691c0.313,0.23,0.615,0.464,1.004,0.694c-0.389,0.229-0.691,0.463-1.004,0.619
		c-0.461,0.306-0.928,0.538-1.311,0.77C186.975,38.711,186.291,39.174,185.588,39.634z M196.701,43.494
		c-0.303,0.153-0.539,0.309-0.77,0.54c-0.703,0.615-1.475,1.079-2.314,1.387c-0.078-0.078-0.164-0.078-0.236-0.149
		c-0.918-0.621-1.768-1.314-2.627-2.008c-0.613-0.465-1.23-0.929-1.846-1.391c-0.389-0.229-0.691-0.461-0.996-0.695
		c0.305-0.149,0.607-0.383,0.996-0.538c0.313-0.23,0.695-0.466,1.084-0.771c0.762-0.463,1.535-0.925,2.391-1.232
		c0.305,0.309,0.689,0.617,0.998,0.928c0.547,0.463,1.156,0.846,1.777,1.232c0.537,0.31,1.004,0.538,1.543,0.926
		c0.461,0.308,1.006,0.614,1.465,0.926C197.621,42.875,197.162,43.107,196.701,43.494z M227.545,49.43
		c-2.15,0-4.246-0.075-6.25-0.313c-2.387-0.304-4.699-0.769-6.781-1.462c-3.854-1.157-7.479-2.623-10.807-4.473
		c1.861-0.54,3.709-0.929,5.641-1.313c1.926-0.307,4.014-0.461,6.164-0.461c1.854,0,3.787,0.155,5.783,0.54
		c1.701,0.23,3.477,0.693,5.252,1.233c4.086,1.155,7.551,2.931,10.561,5.241C234.254,49.12,231.092,49.43,227.545,49.43z
		 M243.818,46.578c-1.311,0.387-2.629,0.771-3.938,1.08c-3.543-2.852-7.551-4.935-12.18-6.246c-2.238-0.617-4.318-1.157-6.406-1.468
		c-2.229-0.383-4.472-0.54-6.547-0.54c-4.861,0-9.334,0.77-13.58,2.237c-0.998-0.693-2.002-1.309-3.002-2.009
		c-0.459-0.303-1.004-0.69-1.465-0.999c-0.539-0.308-1.007-0.693-1.543-1.003c0.467-0.229,1.004-0.385,1.543-0.614
		c2.393-0.851,4.934-1.466,7.631-1.928c3.239-0.465,6.479-0.695,9.642-0.695c2.391,0,4.782,0.154,7.321,0.462
		c3.164,0.465,6.485,1.158,9.951,2.161c6.092,1.772,11.493,4.396,16.192,7.941C246.287,45.579,245.055,46.116,243.818,46.578z
		 M259.777,71.95c-0.229,1.229-0.539,2.545-1.006,3.854c-0.307-0.383-0.537-0.771-0.766-1.154c-1.387-2.469-2.01-5.246-2.01-8.326
		c0-3.551,0.623-6.481,2.01-8.871c1.316,3.24,2.004,6.785,2.004,10.874C260.012,69.482,259.926,70.719,259.777,71.95z
		 M180.586,21.515c1.846,0,2.773-0.925,2.773-2.7c0-1.853-0.928-2.774-2.773-2.774c-1.316,0-2.158,0.463-2.557,1.313
		c-0.146,0.383-0.224,0.847-0.224,1.462c0,0.543,0.078,1.003,0.224,1.39C178.428,21.126,179.27,21.515,180.586,21.515z"/>
	<path fill="#FA5B1E" d="M291.633,66.009c-1.16-2.004-2.625-3.7-4.471-5.01c0.146-0.307,0.225-0.848,0.225-1.465v-1.775
		c0-2.23-0.539-3.929-1.615-5.161c-1.08-1.237-2.32-2.396-3.631-3.241c-0.762-0.539-1.387-1.004-2.002-1.467
		c-0.623-0.463-1.152-0.925-1.697-1.312c-1.078-0.925-1.621-2.236-1.621-3.933c0-1.156,0.467-2.161,1.238-2.854
		c0.693-0.619,1.391-1.003,2.08-1.082c0.156-0.076,0.313-0.076,0.467-0.076c0.688,0,1.389,0.23,2.16,0.617
		c0.764,0.461,1.387,0.772,1.848,1.155c1.158,0.311,1.545,0.077,0.998-0.773c-0.451-0.46-1.154-0.999-1.998-1.462
		c-0.848-0.541-1.932-0.771-3.238-0.771h-0.232c-1.313,0-2.395,0.462-3.318,1.233c-1,0.851-1.467,2.16-1.467,4.012
		c0,1.851,0.467,3.394,1.467,4.628c1.004,1.231,2.08,2.389,3.318,3.469l0.076,0.075c1.234,1.084,2.465,2.242,3.549,3.394
		c1.072,1.159,1.625,2.624,1.625,4.239c0,0.695-0.084,1.315-0.23,1.78c-1.861-0.93-3.549-1.466-5.02-1.623
		c-0.461-0.075-0.852-0.157-1.313-0.157c-1.621,0-3.24,0.463-4.627,1.315c-1.467,0.846-2.16,1.929-2.16,3.236
		c0,1.393,0.537,2.542,1.545,3.626c0.998,1.158,2.547,1.697,4.773,1.697c0.625,0,1.154-0.078,1.777-0.157
		c2.705-0.463,4.699-2.004,6.02-4.625c3.012,2.157,4.471,5.245,4.471,9.252c0,1.854-0.467,3.471-1.387,4.785
		c-0.855,1.383-2.078,2.463-3.631,3.393c-1.459,0.923-3.166,1.617-5.006,2.154c-0.152,0-0.311,0.078-0.467,0.156
		c-1.697,0.383-3.318,0.617-4.785,0.617c-2.693,0-5.393-0.541-8.098-1.543c-2.617-1.002-4.938-2.543-6.777-4.547
		c0.539-1.621,0.92-3.318,1.311-5.018c0.313-1.619,0.459-3.235,0.459-4.776c0-4.863-0.85-9.023-2.621-12.575
		c-0.467-0.923-1.002-1.925-1.617-2.851c-1.543-2.472-3.469-4.859-5.781-7.175c3.162-2.545,5.088-5.627,5.781-9.177
		c0.146-0.923,0.229-1.927,0.229-2.854c0-0.923-0.08-1.847-0.229-2.695c-0.693-3.473-2.619-6.558-5.781-9.256
		c-4.018-3.473-9.334-5.166-15.889-5.166c-3.313,0-6.398,0.542-9.104,1.542c-2.159,0.693-4.086,1.697-5.938,2.853
		c-0.616,0.312-1.151,0.695-1.774,1.16c-0.306,0.462-0.071,0.537,0.771,0.232c0.313-0.232,0.703-0.39,1.006-0.62
		c1.933-1.002,3.938-1.772,6.173-2.314c2.543-0.538,5.321-0.848,8.182-0.848c6.158,0,11.175,1.467,14.955,4.242
		c3.703,2.853,5.629,6.479,5.629,10.873c0,3.856-2.159,7.095-6.563,9.796c-4.846-3.854-10.481-6.789-16.963-8.792
		c-3.931-1.233-7.701-2.082-11.41-2.543c-2.387-0.309-4.698-0.466-7.014-0.466c-3.856,0-7.63,0.309-11.336,1.081
		c-2.162,0.464-4.24,1.001-6.244,1.693c-1.162,0.389-2.242,0.85-3.32,1.313c-0.309,0.078-0.692,0.229-0.997,0.384
		c-0.854-0.463-1.472-1.001-2.011-1.619c-0.461-0.538-0.922-0.925-1.465-1.233c-0.154-0.075-0.226-0.075-0.306-0.151
		c0.08-0.078,0.149-0.078,0.306-0.155c1.465-0.924,2.937-1.695,4.473-2.389c1.078-0.463,2.158-0.852,3.32-1.159
		c2.465-0.693,4.935-1.079,7.479-1.079h0.313c0.146,0.385,0.219,0.619,0.219,0.771c0,0.153,0.086,0.386,0.234,0.77
		c0.313,0.465,0.697,0.697,1.15,0.619c0.391-0.079,0.623-0.385,0.623-0.927c0-0.309-0.07-0.541-0.156-0.614
		c-0.076-0.079-0.076-0.233-0.076-0.619c0.852,0,1.619,0.079,2.393,0.229c0.701,0.232,1.389,0.391,1.854,0.543
		c0.853,0,0.998-0.311,0.539-1.003c-1.006-0.848-2.694-1.233-5.088-1.233c-0.467-1.391-1.162-2.776-2.004-4.318
		c5.854,0,11.252,2.004,16.106,6.013c0.39,0.312,0.703,0.391,1.006,0.391c0.086,0,0.164-0.079,0.236-0.079
		c0.381-0.154,0.381-0.461,0-0.771c-0.072-0.08-0.15-0.153-0.236-0.231c-2.307-2.237-5.002-3.934-8.168-5.166
		c-3.239-1.234-6.476-1.929-9.637-1.929c-1.701-2.547-3.938-4.937-6.789-6.94c-0.695-0.46-1.31-0.927-2.011-1.31
		c-0.452-0.231-0.851-0.464-1.312-0.692c-1.387-0.773-2.93-1.313-4.473-1.777c-1.613-0.462-3.39-0.77-5.16-0.924
		c-1.006-0.078-2.086-0.155-3.162-0.155c-0.849,0-1.708,0.077-2.557,0.077c-0.92,0.078-1.925,0.232-2.846,0.385
		c-1.004,0.155-1.925,0.311-2.927,0.617c-1.544,0.463-3.081,1.003-4.481,1.777c-0.46,0.229-0.842,0.46-1.223,0.692
		c-0.774,0.383-1.391,0.85-2.089,1.31c-2.853,2.006-5.088,4.395-6.781,6.94c-3.163,0-6.403,0.693-9.638,1.929
		c-3.166,1.232-5.868,2.929-8.175,5.166c-0.079,0.079-0.157,0.152-0.235,0.231c-0.388,0.311-0.388,0.615,0,0.771
		c0.079,0,0.157,0.079,0.235,0.079c0.304,0,0.614-0.079,0.999-0.391c4.706-4.009,10.019-6.013,16.116-6.013
		c-0.846,1.542-1.544,2.929-2.004,4.318c-2.386,0-4.093,0.387-5.099,1.233c-0.45,0.692-0.296,1.003,0.552,1.003
		c0.453-0.152,1.155-0.311,1.85-0.543c0.764-0.149,1.534-0.229,2.393-0.229c0,0.385,0,0.54-0.085,0.619
		c-0.072,0.074-0.15,0.307-0.15,0.614c0,0.542,0.235,0.848,0.617,0.927c0.46,0.079,0.848-0.154,1.152-0.619
		c0.156-0.383,0.235-0.615,0.235-0.77c0-0.153,0.079-0.388,0.232-0.771h0.307c2.538,0,5.009,0.385,7.479,1.079
		c1.152,0.309,2.236,0.696,3.313,1.159c1.55,0.692,3.009,1.465,4.481,2.389c0.147,0.077,0.225,0.077,0.304,0.155
		c-0.079,0.076-0.157,0.076-0.304,0.151c-0.538,0.311-1.005,0.695-1.472,1.233c-0.539,0.617-1.155,1.156-2.004,1.619
		c-0.313-0.153-0.694-0.307-1.005-0.384c-1.077-0.464-2.16-0.926-3.313-1.313c-1.997-0.692-4.086-1.229-6.243-1.693
		c-3.701-0.772-7.48-1.081-11.337-1.081c-2.314,0-4.628,0.157-7.014,0.466c-3.7,0.462-7.483,1.311-11.416,2.543
		c-6.478,2.004-12.111,4.938-16.968,8.792c-4.392-2.701-6.553-5.938-6.553-9.796c0-4.396,1.925-8.021,5.626-10.873
		c3.779-2.775,8.792-4.242,14.964-4.242c5.469,0,10.175,1.083,14.346,3.24c0.304,0.152,0.685,0.31,0.999,0.542
		c0.849,0.305,1.08,0.229,0.77-0.232c-0.616-0.465-1.155-0.85-1.769-1.16c-1.854-1.154-3.786-2.157-5.939-2.853
		c-2.703-1-5.79-1.542-9.103-1.542c-6.56,0-11.876,1.693-15.887,5.166c-3.166,2.698-5.088,5.783-5.783,9.256
		c-0.157,0.85-0.235,1.772-0.235,2.695c0,0.929,0.078,1.933,0.235,2.854c0.695,3.55,2.617,6.632,5.783,9.177
		c-2.229,2.237-4.161,4.629-5.783,7.175c-0.078,0.075-0.157,0.229-0.235,0.384c-1.302-1.155-2.853-2.005-4.621-2.542
		c-1.775-0.467-3.319-0.773-4.706-0.773c-0.617,0-1.309,0.232-2.004,0.54c-0.31,0.308-0.388,0.615-0.231,0.847
		c0.157,0.312,0.539,0.312,0.999,0.156c1.394-0.156,2.859,0.075,4.556,0.617c1.693,0.617,3.233,1.697,4.777,3.391
		c-1.854,4.017-2.774,8.332-2.774,12.809c0,1.541,0.15,3.157,0.46,4.776c0.381,1.697,0.77,3.396,1.315,5.018
		c-1.854,2.004-4.167,3.545-6.795,4.547c-2.696,1.002-5.391,1.543-8.087,1.543c-1.472,0-3.088-0.234-4.784-0.617
		c-0.157-0.078-0.313-0.156-0.467-0.156c-1.851-0.537-3.541-1.231-5.006-2.154c-1.551-0.93-2.781-2.01-3.629-3.393
		c-0.92-1.314-1.387-2.934-1.387-4.785c0-4.007,1.465-7.095,4.471-9.252c1.312,2.621,3.319,4.162,6.019,4.625
		c0.613,0.079,1.151,0.157,1.769,0.157c2.235,0,3.779-0.539,4.784-1.697c1.005-1.083,1.544-2.233,1.544-3.626
		c0-1.309-0.695-2.392-2.16-3.236c-1.388-0.854-3.009-1.315-4.628-1.315c-0.467,0-0.849,0.082-1.309,0.082
		c-1.779,0.232-3.476,0.771-5.013,1.698c-0.164-0.464-0.231-1.084-0.231-1.78c0-1.615,0.538-3.081,1.54-4.239
		c1.006-1.15,2.082-2.31,3.392-3.394c0.078-0.075,0.235-0.231,0.313-0.309c1.151-1,2.235-2.08,3.162-3.235
		c1.077-1.234,1.622-2.777,1.622-4.628c0-1.852-0.467-3.161-1.472-4.012c-0.92-0.771-2.003-1.233-3.312-1.233h-0.236
		c-1.309,0-2.385,0.229-3.24,0.771c-0.842,0.463-1.537,1.002-1.997,1.462c-0.545,0.852-0.164,1.083,0.991,0.773
		c0.474-0.383,1.084-0.693,1.861-1.155c0.764-0.387,1.459-0.617,2.154-0.617c0.154,0,0.31,0,0.467,0.076
		c0.691,0.079,1.387,0.463,2.078,1.082c0.774,0.691,1.234,1.696,1.234,2.854c0,1.695-0.539,3.007-1.616,3.933
		c-0.545,0.387-1.083,0.85-1.696,1.312c-0.617,0.463-1.241,0.928-2.004,1.467c-1.309,0.847-2.549,2.004-3.632,3.241
		c-1.073,1.232-1.612,2.931-1.612,5.161v1.775c0,0.617,0.078,1.158,0.225,1.465c-1.847,1.31-3.313,3.006-4.471,5.01
		c-1.233,2.012-1.778,4.321-1.778,6.788c0,4.551,1.622,8.178,5.02,10.797c2.392,1.93,5.166,3.162,8.254,3.703
		c1.309,0.229,2.623,0.387,4.089,0.387c3.002,0,5.93-0.615,8.867-1.775c2.932-1.232,5.627-2.93,7.938-5.322
		c0.388,0.698,0.776,1.313,1.237,1.934c0.77,1.077,1.69,1.929,2.773,2.771c1.701,1.234,3.937,1.854,6.788,1.854
		c3.009,0,5.633-0.851,7.784-2.546c0.157-1.155-0.225-1.54-1.23-1.233c-0.848,0.694-1.847,1.158-3.009,1.544
		c-1.158,0.311-2.314,0.46-3.313,0.46c-2.314,0-4.324-0.69-5.857-2.004c-1.622-1.31-2.853-2.931-3.633-4.784
		c3.166-3.702,4.706-8.09,4.706-13.339c0-4.317-1.151-7.865-3.466-10.486c1.316-2.697,3.466-5.321,6.554-7.789
		c1.152,0.617,2.235,1.232,3.39,1.854c1.084,0.614,2.243,1.078,3.623,1.386c-3.162,4.009-4.778,8.712-4.778,14.035
		c0,3.395,0.773,6.25,2.239,8.714c1.541,2.391,3.084,4.477,4.774,6.172c0.313,0.308,0.624,0.386,0.78,0.075
		c0.147-0.231,0.147-0.464,0-0.62c-1.309-1.848-2.549-3.929-3.625-6.238c-1.081-2.396-1.697-5.171-1.697-8.333
		c0-2.854,0.46-5.322,1.387-7.401c0.92-2.082,2.161-4.008,3.701-5.63c4.164,1.002,8.411,1.466,12.803,1.466
		c2.082,0,4.085-0.075,6.018-0.308c3.006-0.39,5.851-1.007,8.557-1.932c4.317-1.542,8.485-3.469,12.337-5.783
		c0.77,0.311,1.618,0.694,2.47,1.161c0.456,0.15,0.842,0.382,1.23,0.613c0.467,0.229,0.849,0.463,1.315,0.771
		c-0.466,0.231-0.848,0.538-1.315,0.771c-3.7,2.543-7.479,4.547-11.26,6.244c-4.243,1.854-8.557,2.772-13.109,2.772h-0.225
		c-3.554-0.073-6.795-0.611-9.569-1.769c-0.306-0.153-0.616-0.153-0.841,0.079c-0.236,0.307-0.157,0.614,0.382,0.924
		c1.618,1.001,3.397,1.697,5.244,2.007c1.619,0.309,3.163,0.457,4.785,0.457h0.77c4.849,0,9.478-0.998,13.802-3.081
		c3.392-1.619,6.711-3.547,10.022-5.708c0.999-0.615,2.089-1.311,3.084-2.004c0.079,0.077,0.157,0.155,0.229,0.23
		c1.697,1.623,3.169,3.086,4.481,4.552c0.225,0.156,0.382,0.306,0.536,0.538c0.313,0.31,0.695,0.385,0.999,0.082
		c0.313-0.235,0.389-0.545,0.234-0.854c-0.538-0.849-1.155-1.544-1.769-2.313c-1.083-1.234-2.161-2.313-3.244-3.238
		c0.998-0.847,2.003-1.621,2.931-2.39c0.078-0.081,0.228-0.156,0.313-0.313c0.849-0.618,1.769-1.23,2.774-1.771
		c0.068,0,0.068,0,0.153,0.077c0.774,0.465,1.466,1.003,2.161,1.617c0.225,0.31,0.461,0.542,0.685,0.771
		c0.467,0.464,0.849,0.851,1.319,1.313c-0.471,0.54-0.92,1.235-1.319,1.854c-1.308,2.465-1.994,5.165-1.994,8.174
		c0,1.313,0.382,2.852,1.152,4.549c0.234,0.538,0.538,1.002,0.841,1.392c0.702,0.69,1.551,1.075,2.557,1.075
		c1.311,0,2.387-0.694,3.162-2.004c0.072-0.151,0.148-0.307,0.229-0.463c0.771-1.697,1.158-3.237,1.158-4.549
		c0-2.546-0.468-4.782-1.388-6.867c-0.545-1.151-1.166-2.232-1.933-3.159c0.615-0.689,1.313-1.313,1.933-1.927
		c0,0,0.072-0.079,0.072-0.157c0.694-0.613,1.465-1.23,2.319-1.693c0.998,0.542,1.918,1.154,2.769,1.771
		c0.078,0.155,0.228,0.23,0.313,0.313c0.92,0.77,1.926,1.543,2.932,2.39c-1.078,0.926-2.16,2.004-3.244,3.238
		c-0.615,0.77-1.23,1.465-1.77,2.313c-0.164,0.308-0.078,0.617,0.229,0.854c0.311,0.303,0.691,0.229,1.006-0.082
		c0.146-0.232,0.311-0.382,0.535-0.538c1.318-1.466,2.773-2.929,4.473-4.552c0.072-0.075,0.158-0.153,0.236-0.23
		c1.074,0.693,2.078,1.39,3.084,2.004c3.313,2.161,6.625,4.089,10.021,5.708c4.316,2.083,8.943,3.081,13.803,3.081h0.77
		c1.621,0,3.164-0.147,4.785-0.457c1.854-0.31,3.623-1.006,5.244-2.007c0.545-0.31,0.617-0.617,0.389-0.924
		c-0.23-0.231-0.545-0.231-0.85-0.079c-2.779,1.156-6.021,1.694-9.568,1.769h-0.229c-4.549,0-8.871-0.92-13.111-2.772
		c-3.771-1.697-7.551-3.701-11.252-6.244c-0.467-0.232-0.854-0.539-1.311-0.771c0.453-0.31,0.844-0.542,1.311-0.771
		c0.381-0.231,0.766-0.463,1.229-0.613c0.854-0.467,1.693-0.852,2.473-1.161c3.855,2.314,8.023,4.241,12.336,5.783
		c2.693,0.925,5.561,1.542,8.559,1.932c1.932,0.231,3.938,0.308,6.02,0.308c4.166,0,8.484-0.464,12.803-1.466
		c1.539,1.622,2.773,3.548,3.701,5.63c0.926,2.079,1.387,4.549,1.387,7.401c0,3.162-0.617,5.937-1.693,8.333
		c-1.082,2.312-2.32,4.393-3.631,6.238c-0.146,0.156-0.146,0.389,0,0.62c0.156,0.311,0.467,0.23,0.771-0.075
		c1.707-1.695,3.244-3.781,4.783-6.172c1.465-2.463,2.24-5.319,2.24-8.714c0-5.323-1.623-10.026-4.785-14.035
		c1.387-0.308,2.545-0.771,3.629-1.386c1.156-0.62,2.229-1.234,3.391-1.853c3.084,2.467,5.246,5.09,6.555,7.788
		c-2.314,2.621-3.471,6.168-3.471,10.486c0,5.249,1.545,9.637,4.703,13.339c-0.768,1.854-2.004,3.477-3.625,4.784
		c-1.545,1.313-3.545,2.004-5.863,2.004c-1,0-2.156-0.149-3.309-0.46c-1.154-0.386-2.16-0.85-3.008-1.544
		c-1.006-0.307-1.396,0.078-1.24,1.233c2.16,1.695,4.783,2.546,7.793,2.546c2.852,0,5.168-0.617,6.941-1.775
		c0.998-0.613,1.848-1.463,2.621-2.311c0.545-0.695,1.084-1.393,1.465-2.16c4.854,4.471,10.412,6.787,16.582,6.787
		c1.459,0,2.771-0.156,4.084-0.386c3.08-0.541,5.854-1.774,8.246-3.703c3.396-2.62,5.016-6.247,5.016-10.798
		C293.4,70.33,292.863,68.02,291.633,66.009z M280.139,65.471c-0.305,0.073-0.539,0.073-0.771,0.073
		c-2.16,0-3.313-0.767-3.313-2.311c0-0.771,0.467-1.311,1.311-1.465c0.85-0.156,1.621-0.231,2.471-0.231h0.307
		c1.543,0,2.855,0.309,4.014,1.005C283.068,64.237,281.76,65.239,280.139,65.471z M81.026,61.538h0.309
		c0.842,0,1.616,0.075,2.464,0.231c0.849,0.155,1.315,0.693,1.315,1.465c0,1.544-1.162,2.311-3.319,2.311
		c-0.235,0-0.461,0-0.77-0.075c-1.623-0.23-2.931-1.232-4.008-2.927C78.174,61.844,79.482,61.538,81.026,61.538z M105.161,66.323
		c0,3.081-0.617,5.857-2.004,8.326c-0.235,0.385-0.461,0.771-0.771,1.152c-0.467-1.309-0.767-2.622-0.998-3.854
		c-0.164-1.231-0.236-2.468-0.236-3.624c0-4.089,0.695-7.634,2.004-10.874C104.543,59.841,105.161,62.771,105.161,66.323z
		 M203.107,24.291c0.383,0.695,0.764,1.465,1.074,2.314c-2.625,0-5.176,0.307-7.48,0.927c-0.467,0.153-0.928,0.308-1.387,0.461
		c-0.623,0.155-1.311,0.385-1.936,0.616c-1.465,0.618-3.008,1.237-4.473,2.003c-0.691,0.31-1.383,0.62-2.08,1.003
		c-0.92-0.923-2.004-1.619-3.08-2.235c-0.391-0.152-0.775-0.385-1.166-0.538c0.391-0.231,0.775-0.464,1.166-0.692
		c1.691-1.003,3.393-1.852,5.16-2.701c0.926-0.462,1.846-0.848,2.852-1.235c0.539-0.229,1.076-0.464,1.621-0.612
		c1.078-0.39,2.158-0.618,3.32-0.851c1.623-0.31,3.391-0.463,5.236-0.463C202.25,22.98,202.641,23.674,203.107,24.291z
		 M184.824,33.083c-0.309,0.23-0.695,0.385-1.076,0.617c-0.311,0.232-0.699,0.46-1.006,0.693c-0.77,0.462-1.473,1.001-2.156,1.464
		c-0.703-0.463-1.388-1.001-2.158-1.464c-0.078-0.077-0.235-0.233-0.399-0.309c-0.607-0.386-1.152-0.695-1.69-1.003
		c0.538-0.542,1.083-1.002,1.69-1.467c0.164-0.074,0.321-0.154,0.399-0.23c0.77-0.535,1.455-1.076,2.158-1.538
		c0.684,0.461,1.387,1.003,2.156,1.538c0.307,0.157,0.695,0.466,1.006,0.695C184.129,32.389,184.516,32.773,184.824,33.083z
		 M164.463,16.351c1.084-0.774,2.157-1.471,3.313-2.084c0.545-0.31,1.169-0.542,1.783-0.772c0.841-0.308,1.769-0.618,2.698-0.921
		c1.002-0.234,1.923-0.467,2.927-0.62c0.92-0.154,1.926-0.311,2.846-0.384c0.849-0.08,1.708-0.08,2.557-0.08
		c1.076,0,2.072,0.08,3.162,0.153c1.692,0.155,3.463,0.464,5.16,0.931c0.926,0.303,1.846,0.614,2.705,0.921
		c0.612,0.231,1.223,0.464,1.768,0.772c1.156,0.613,2.244,1.31,3.32,2.084c1.387,1.152,2.772,2.542,4.014,4.163
		c-1.387,0.149-2.704,0.308-4.014,0.54c-1.162,0.229-2.242,0.461-3.32,0.691c-1.153,0.312-2.391,0.693-3.469,1.078
		c-0.39,0.079-0.69,0.234-1.004,0.309c-1.849,0.694-3.554,1.467-5.16,2.313c-1.09,0.619-2.164,1.234-3.162,1.852
		c-0.849-0.463-1.623-1.001-2.557-1.465c-0.92-0.54-1.847-1.003-2.846-1.466c-0.927-0.46-1.925-0.849-2.927-1.234
		c-0.313-0.073-0.616-0.229-1.005-0.309c-1.084-0.385-2.307-0.768-3.476-1.078c-1.077-0.23-2.16-0.462-3.313-0.691
		c-1.308-0.232-2.621-0.391-4.007-0.54C161.682,18.893,163.069,17.505,164.463,16.351z M172.256,30.612
		c-1.472-0.769-3.009-1.386-4.481-2.003c-0.609-0.231-1.309-0.461-1.925-0.616c-0.46-0.153-0.92-0.308-1.387-0.461
		c-2.313-0.62-4.856-0.927-7.479-0.927c0.31-0.851,0.698-1.619,1.08-2.314c0.467-0.617,0.852-1.31,1.155-2.004
		c1.854,0,3.629,0.153,5.244,0.463c1.152,0.23,2.236,0.46,3.313,0.851c0.545,0.148,1.083,0.383,1.619,0.612
		c1.005,0.389,1.933,0.773,2.862,1.235c1.002,0.46,1.923,0.924,2.927,1.464c0.92,0.464,1.926,1.082,2.846,1.621
		c0.236,0.077,0.399,0.231,0.545,0.311c-0.146,0.076-0.31,0.153-0.545,0.229c-0.991,0.463-1.925,1.078-2.846,1.777
		c-0.31,0.229-0.62,0.46-0.848,0.767C173.644,31.232,172.948,30.922,172.256,30.612z M146.654,47.658
		c-2.085,0.693-4.399,1.158-6.785,1.462c-2.011,0.235-4.093,0.313-6.25,0.313c-3.547,0-6.71-0.313-9.562-1.002
		c3.009-2.313,6.475-4.088,10.567-5.243c1.769-0.54,3.544-1.003,5.245-1.233c1.994-0.385,3.926-0.54,5.783-0.54
		c2.157,0,4.229,0.155,6.164,0.461c1.93,0.385,3.78,0.772,5.633,1.313C154.13,45.035,150.505,46.501,146.654,47.658z
		 M159.988,41.642c-4.393-1.47-8.867-2.237-13.566-2.237c-2.083,0-4.325,0.157-6.554,0.54c-2.089,0.311-4.171,0.851-6.4,1.468
		c-4.627,1.313-8.642,3.396-12.187,6.246c-1.309-0.31-2.627-0.693-3.936-1.08c-1.237-0.461-2.471-0.999-3.623-1.619
		c4.699-3.547,10.097-6.169,16.194-7.941c3.466-1.002,6.785-1.696,9.951-2.161c2.539-0.309,4.931-0.462,7.323-0.462
		c3.159,0,6.393,0.23,9.634,0.695c2.695,0.462,5.245,1.077,7.637,1.928c0.546,0.229,1.084,0.385,1.544,0.614
		c-0.545,0.311-0.998,0.695-1.544,1.003c-0.46,0.309-1.005,0.696-1.465,0.999C161.993,40.334,160.994,40.948,159.988,41.642z
		 M172.256,41.873c-0.616,0.462-1.24,0.925-1.857,1.391c-0.841,0.691-1.69,1.387-2.624,2.008c-0.071,0.071-0.149,0.071-0.229,0.149
		c-0.848-0.308-1.619-0.771-2.307-1.387c-0.231-0.231-0.467-0.387-0.777-0.54c-0.46-0.387-0.927-0.618-1.465-0.849
		c0.46-0.312,1.005-0.618,1.465-0.927c0.546-0.387,0.999-0.615,1.544-0.925c0.613-0.388,1.23-0.771,1.769-1.232
		c0.311-0.311,0.692-0.619,1.005-0.928c0.849,0.309,1.619,0.771,2.393,1.232c0.389,0.307,0.771,0.54,1.083,0.771
		c0.382,0.155,0.692,0.389,1.002,0.538C172.948,41.412,172.638,41.642,172.256,41.873z M175.184,39.331
		c-0.538-0.389-1.08-0.696-1.625-1.082c-0.383-0.23-0.836-0.464-1.303-0.77c-0.313-0.155-0.616-0.391-1.005-0.619
		c0.389-0.23,0.692-0.537,1.005-0.771c0.304-0.232,0.536-0.387,0.771-0.615c0.532-0.385,1.077-0.85,1.769-1.389
		c0.156,0.152,0.235,0.23,0.388,0.309c0.539,0.387,1.07,0.771,1.623,1.081c0.382,0.229,0.849,0.54,1.223,0.77
		c0.399,0.231,0.702,0.387,1.013,0.617c-0.311,0.31-0.692,0.54-1.013,0.771c-0.224,0.23-0.46,0.463-0.685,0.617
		c-0.538,0.462-1.09,0.925-1.778,1.385C175.419,39.561,175.334,39.484,175.184,39.331z M183.129,55.758
		c0,2.313-0.854,3.776-2.543,4.24c-1.708-0.464-2.557-1.929-2.557-4.24c0-2.854,0.849-5.557,2.557-8.101
		C182.275,50.202,183.129,52.902,183.129,55.758z M183.748,40.795c-0.545,0.463-1.09,0.925-1.547,1.232
		c-0.539,0.388-1.078,1.08-1.615,1.85c-0.539-0.77-1.084-1.462-1.623-1.85c-0.317-0.23-0.613-0.46-0.934-0.694
		c-0.303-0.306-0.607-0.615-0.991-0.926c0.306-0.233,0.688-0.463,0.991-0.693c0.321-0.151,0.545-0.383,0.781-0.54
		c0.692-0.539,1.237-0.925,1.776-1.312c0.537,0.387,1.076,0.771,1.768,1.312c0.461,0.389,0.93,0.693,1.396,1
		c0.07,0.081,0.229,0.161,0.381,0.233C183.977,40.484,183.82,40.638,183.748,40.795z M185.588,39.634
		c-0.686-0.46-1.23-0.923-1.768-1.385l-0.072-0.077c-0.467-0.387-1.006-0.849-1.619-1.312c0.529-0.386,1.152-0.694,1.619-1.004
		c0.15-0.153,0.299-0.23,0.453-0.383c0.623-0.385,1.24-0.85,1.939-1.389c0.604,0.539,1.301,1.004,1.84,1.389
		c0.313,0.229,0.623,0.46,0.928,0.691c0.313,0.23,0.615,0.464,1.004,0.694c-0.389,0.229-0.691,0.463-1.004,0.619
		c-0.461,0.306-0.928,0.538-1.311,0.77C186.975,38.711,186.291,39.174,185.588,39.634z M196.701,43.494
		c-0.303,0.153-0.539,0.309-0.77,0.54c-0.703,0.615-1.475,1.079-2.314,1.387c-0.078-0.078-0.164-0.078-0.236-0.149
		c-0.918-0.621-1.768-1.314-2.627-2.008c-0.613-0.465-1.23-0.929-1.846-1.391c-0.389-0.229-0.691-0.461-0.996-0.695
		c0.305-0.149,0.607-0.383,0.996-0.538c0.313-0.23,0.695-0.466,1.084-0.771c0.762-0.463,1.535-0.925,2.391-1.232
		c0.305,0.309,0.689,0.617,0.998,0.928c0.547,0.463,1.156,0.846,1.777,1.232c0.537,0.31,1.004,0.538,1.543,0.926
		c0.461,0.308,1.006,0.614,1.465,0.926C197.621,42.875,197.162,43.107,196.701,43.494z M227.545,49.43
		c-2.15,0-4.246-0.075-6.25-0.313c-2.387-0.304-4.699-0.769-6.781-1.462c-3.854-1.157-7.479-2.623-10.807-4.473
		c1.861-0.54,3.709-0.929,5.641-1.313c1.926-0.307,4.014-0.461,6.164-0.461c1.854,0,3.787,0.155,5.783,0.54
		c1.701,0.23,3.477,0.693,5.252,1.233c4.086,1.155,7.551,2.931,10.561,5.241C234.254,49.12,231.092,49.43,227.545,49.43z
		 M243.818,46.578c-1.311,0.387-2.629,0.771-3.938,1.08c-3.543-2.852-7.551-4.935-12.18-6.246c-2.238-0.617-4.318-1.157-6.406-1.468
		c-2.229-0.383-4.472-0.54-6.547-0.54c-4.861,0-9.334,0.77-13.58,2.237c-0.998-0.693-2.002-1.309-3.002-2.009
		c-0.459-0.303-1.004-0.69-1.465-0.999c-0.539-0.308-1.007-0.693-1.543-1.003c0.467-0.229,1.004-0.385,1.543-0.614
		c2.393-0.851,4.934-1.466,7.631-1.928c3.239-0.465,6.479-0.695,9.642-0.695c2.391,0,4.782,0.154,7.321,0.462
		c3.164,0.465,6.485,1.158,9.951,2.161c6.092,1.772,11.493,4.396,16.192,7.941C246.287,45.579,245.055,46.116,243.818,46.578z
		 M259.777,71.95c-0.229,1.229-0.539,2.545-1.006,3.854c-0.307-0.383-0.537-0.771-0.766-1.154c-1.387-2.469-2.01-5.246-2.01-8.326
		c0-3.551,0.623-6.481,2.01-8.871c1.316,3.24,2.004,6.785,2.004,10.874C260.012,69.482,259.926,70.719,259.777,71.95z
		 M180.586,21.515c1.846,0,2.773-0.925,2.773-2.7c0-1.853-0.928-2.774-2.773-2.774c-1.316,0-2.158,0.463-2.557,1.313
		c-0.146,0.383-0.224,0.847-0.224,1.462c0,0.543,0.078,1.003,0.224,1.39C178.428,21.126,179.27,21.515,180.586,21.515z"/>
</g>
<g>
	<path fill="none" stroke="#FFFFFF" stroke-linecap="round" stroke-linejoin="round" stroke-miterlimit="10" d="M124.753,102.577
		c0,0-26.374,8.848-44.278,10.331c0,0-33.352,4.205-53.321-16.691c0,0-15.057-13.63-15.962-30.01c0,0-3.79-16.186,10.9-19.218
		c0,0,9.351-1.493,19.487,4.249c0,0,15.365,6.497,21.629-1.923c0,0,4.186-8.692-6.335-16.753c0,0-3.326-1.951-6.949-0.642
		c0,0,3.207-2.873,9.05,0.017c0,0,8.84,5.045,6.89,16.028c0,0-2.378,10.886-17.99,7.343c0,0-7.657-2.093-13.479-5.382
		c0,0-14.01-4.64-16.85,4.402c0,0-5.409,11.655,4.541,27.951c0,0,9.552,16.764,30.609,25.796c0,0,13.086,5.458,30.333,2.616
		c0,0,15.131-1.377,23.691-8.581L124.753,102.577z"/>
	<path fill="#115743" d="M124.753,102.577c0,0-26.374,8.848-44.278,10.331c0,0-33.352,4.205-53.321-16.691
		c0,0-15.057-13.63-15.962-30.01c0,0-3.79-16.186,10.9-19.218c0,0,9.351-1.493,19.487,4.249c0,0,15.365,6.497,21.629-1.923
		c0,0,4.186-8.692-6.335-16.753c0,0-3.326-1.951-6.949-0.642c0,0,3.207-2.873,9.05,0.017c0,0,8.84,5.045,6.89,16.028
		c0,0-2.378,10.886-17.99,7.343c0,0-7.657-2.093-13.479-5.382c0,0-14.01-4.64-16.85,4.402c0,0-5.409,11.655,4.541,27.951
		c0,0,9.552,16.764,30.609,25.796c0,0,13.086,5.458,30.333,2.616c0,0,15.131-1.377,23.691-8.581L124.753,102.577z"/>
</g>
<g>
	<path fill="none" stroke="#FFFFFF" stroke-linecap="round" stroke-linejoin="round" stroke-miterlimit="10" d="M253.117,102.111
		c8.56,7.204,23.688,8.581,23.688,8.581c17.248,2.842,30.338-2.616,30.338-2.616c21.056-9.031,30.606-25.795,30.606-25.795
		c9.949-16.296,4.541-27.952,4.541-27.952c-2.84-9.042-16.851-4.402-16.851-4.402c-5.823,3.29-13.479,5.382-13.479,5.382
		c-15.61,3.542-17.989-7.344-17.989-7.344c-1.951-10.982,6.889-16.028,6.889-16.028c5.845-2.89,9.053-0.017,9.053-0.017
		c-3.623-1.311-6.949,0.642-6.949,0.642c-10.521,8.061-6.336,16.753-6.336,16.753c6.266,8.42,21.63,1.923,21.63,1.923
		c10.136-5.741,19.485-4.249,19.485-4.249c14.691,3.033,10.9,19.218,10.9,19.218c-0.906,16.38-15.961,30.01-15.961,30.01
		c-19.972,20.897-53.322,16.69-53.322,16.69c-17.9-1.482-44.275-10.33-44.275-10.33L253.117,102.111z"/>
	<path fill="#115743" d="M253.117,102.111c8.56,7.204,23.688,8.581,23.688,8.581c17.248,2.842,30.338-2.616,30.338-2.616
		c21.056-9.031,30.606-25.795,30.606-25.795c9.949-16.296,4.541-27.952,4.541-27.952c-2.84-9.042-16.851-4.402-16.851-4.402
		c-5.823,3.29-13.479,5.382-13.479,5.382c-15.61,3.542-17.989-7.344-17.989-7.344c-1.951-10.982,6.889-16.028,6.889-16.028
		c5.845-2.89,9.053-0.017,9.053-0.017c-3.623-1.311-6.949,0.642-6.949,0.642c-10.521,8.061-6.336,16.753-6.336,16.753
		c6.266,8.42,21.63,1.923,21.63,1.923c10.136-5.741,19.485-4.249,19.485-4.249c14.691,3.033,10.9,19.218,10.9,19.218
		c-0.906,16.38-15.961,30.01-15.961,30.01c-19.972,20.897-53.322,16.69-53.322,16.69c-17.9-1.482-44.275-10.33-44.275-10.33
		L253.117,102.111z"/>
</g>
<g>
	<g>
		<path fill="none" stroke="#FBB726" stroke-width="3" stroke-linecap="round" stroke-linejoin="round" d="M69.387,72.418
			c0.939-0.685,1.659-1.013,2.158-0.983c0.939,0.061,1.349,0.641,1.229,1.742c-0.1,0.894-0.45,1.266-1.049,1.117
			c-0.599-0.119-0.85-0.641-0.749-1.563c0.02-0.327,0.129-0.61,0.33-0.849c-0.62,0.03-0.929,0.504-0.929,1.42
			c0,0.709,0.45,1.493,1.349,2.35c1.739,1.686,3.688,2.527,5.846,2.527c1.299,0,2.598-0.311,3.897-0.936
			c0.1-0.356,0.15-0.758,0.15-1.203c0-0.951-0.28-1.932-0.839-2.941c-1.339-2.438-3.697-3.938-7.075-4.502
			c-1.279-0.237-2.578-0.772-3.897-1.604c-1.759-1.129-2.638-2.376-2.638-3.744c0-0.624,0.279-1.188,0.839-1.694
			c2.318-2.08,3.927-3.387,4.826-3.923c1.559-0.921,3.357-1.382,5.396-1.382c1.059,0,2.238,0.149,3.537,0.447
			c1.519,0.328,2.638,0.759,3.357,1.295c0.06,0.06,0.1,0.164,0.12,0.313l-0.03,0.179l-3.657,3.126h-0.09
			c-2.238-1.131-4.487-1.697-6.745-1.697c-1.279,0-2.488,0.179-3.627,0.536c0.08,1.102,0.959,2.144,2.638,3.126
			c1.279,0.745,2.468,1.206,3.567,1.384c3.957,0.715,6.544,2.635,7.764,5.762c0.32,0.834,0.48,1.638,0.48,2.411
			c0,1.191-0.38,2.13-1.139,2.814c-2.319,2.084-3.957,3.439-4.917,4.064c-1.878,1.221-3.697,1.831-5.456,1.831
			c-2.239,0-4.237-0.863-5.996-2.591c-1.06-1.012-1.589-1.994-1.589-2.947C66.449,75.173,67.428,73.877,69.387,72.418z"/>
		<path fill="none" stroke="#FBB726" stroke-width="3" stroke-linecap="round" stroke-linejoin="round" d="M105.959,81.753
			c-2.418,0-5.676-3.156-9.772-9.469l-1.169,0.848v5.539l-0.06,0.134L91.3,81.93c-0.14,0.029-0.21-0.06-0.21-0.268V65.137
			c0-1.489-0.659-2.233-1.979-2.233c-0.4,0-0.929,0.142-1.588,0.424c-0.66,0.284-0.97,0.424-0.93,0.424
			c-0.12,0-0.18-0.119-0.18-0.357l0.06-0.134c5.235-4.615,8.014-6.997,8.333-7.146c0.14,0.03,0.21,0.149,0.21,0.357v3.707
			c3.197-2.709,5.715-4.064,7.554-4.064c0.919,0,1.724,0.449,2.413,1.346c0.689,0.897,1.034,2.033,1.034,3.408
			c0,1.585-0.76,3.214-2.278,4.888c-0.419,0.479-1.619,1.57-3.597,3.274c3.917,6.039,7.055,9.059,9.413,9.059
			c0.28,0,0.87-0.224,1.769-0.67c0.12,0,0.18,0.12,0.18,0.357l-0.06,0.134l-3.627,3.127
			C107.258,81.514,106.638,81.753,105.959,81.753z M94.448,56.428l0.36-0.313C94.788,56.145,94.667,56.249,94.448,56.428z
			 M102.092,63.827c0-1.199-0.31-2.174-0.93-2.924c-0.62-0.75-1.339-1.125-2.158-1.125c-1.06,0-2.388,0.48-3.987,1.439v10.619
			c1.439-0.959,2.878-1.934,4.316-2.924C101.173,67.383,102.092,65.688,102.092,63.827z M99.724,68.666l0.03-0.044
			C99.734,68.621,99.724,68.636,99.724,68.666z"/>
		<path fill="none" stroke="#FBB726" stroke-width="3" stroke-linecap="round" stroke-linejoin="round" d="M108.447,64.066
			c-0.14,0-0.21-0.119-0.21-0.357l0.06-0.134c5.396-4.764,8.253-7.22,8.574-7.37c0.06,0.03,0.129,0.149,0.209,0.357v22.063
			l-3.683,3.127c-0.163,0.029-0.244-0.074-0.244-0.313V65.539c0-1.608-0.689-2.412-2.068-2.412c-1.02,0-1.879,0.283-2.578,0.849
			C108.487,64.006,108.466,64.036,108.447,64.066z M113.033,59.733l0.12-0.044v-0.089L113.033,59.733z M116.511,56.517l0.36-0.313
			C116.85,56.235,116.73,56.339,116.511,56.517z"/>
		<path fill="none" stroke="#FBB726" stroke-width="3" stroke-linecap="round" stroke-linejoin="round" d="M137.494,46.915
			c0.06-0.059,0.12-0.104,0.18-0.134c0.14,0,0.21,0.104,0.21,0.313V78.09c0.959,0,2.378,0,4.257,0c1.898,0,3.317,0,4.257,0
			c0.779,0,1.499-0.269,2.158-0.808c0.02-0.028,0.05-0.057,0.09-0.086c0.12,0,0.19,0.119,0.21,0.357l-0.06,0.135
			c-0.02,0.029-1.249,1.087-3.687,3.171c-0.7,0.596-1.469,0.894-2.309,0.894l-8.663-0.045c-0.041,0-0.08-0.045-0.12-0.135
			c-0.04-0.089-0.06-8.59-0.06-25.502c0-1.667-0.509-2.501-1.529-2.501c-0.359,0-0.745,0.224-1.154,0.67
			c-0.41,0.447-0.615,0.909-0.615,1.385c0,0.119,0.02,0.239,0.06,0.357c0.259-0.685,0.629-0.894,1.109-0.625
			c0.399,0.239,0.599,0.67,0.599,1.295c0,0.923-0.3,1.384-0.899,1.384c-0.12,0-0.24-0.037-0.36-0.111
			c-0.12-0.074-0.22-0.171-0.3-0.291c-0.52-0.625-0.779-1.34-0.779-2.144c0-1.488,0.649-2.784,1.948-3.885
			C133.017,50.741,134.836,49.178,137.494,46.915z M137.494,46.915l-0.18,0.134l0.33-0.268L137.494,46.915z"/>
		<path fill="none" stroke="#FBB726" stroke-width="3" stroke-linecap="round" stroke-linejoin="round" d="M158.628,72.194
			c-1.16,0.982-5.356,4.17-12.591,9.559c-0.12,0-0.18-0.119-0.18-0.357l0.06-0.135c1.838-1.607,3.637-3.93,5.396-6.967
			c2.078-3.543,3.118-6.61,3.118-9.201c0-1.28-0.365-2.449-1.094-3.506c-0.73-1.057-1.534-1.585-2.413-1.585
			c-0.46,0-1.06,0.216-1.799,0.647c-0.74,0.432-1.079,0.648-1.019,0.648c-0.101,0-0.15-0.104-0.15-0.313l0.03-0.134
			c1.019-0.923,2.039-1.831,3.058-2.725c1.458-1.19,2.608-1.787,3.447-1.787c1.079,0,2.128,0.886,3.148,2.658
			c1.019,1.772,2.238,4.221,3.657,7.347c1.718,3.692,2.897,6.163,3.537,7.414c0.459,0.923,0.919,1.847,1.379,2.769
			c0.619,1.043,1.259,1.563,1.918,1.563c0.36,0,0.81-0.163,1.349-0.491c0.54-0.327,0.789-0.491,0.75-0.491
			c0.12,0,0.18,0.104,0.18,0.313l-0.06,0.179l-3.627,3.127c-0.82,0.686-1.529,1.027-2.128,1.027c-0.839,0-1.669-0.789-2.488-2.367
			C160.566,76.348,159.407,73.952,158.628,72.194z M156.833,68.308c-1.261,2.916-2.941,5.624-5.042,8.122l6.512-4.893
			C157.683,70.163,157.192,69.086,156.833,68.308z"/>
		<path fill="none" stroke="#FBB726" stroke-width="3" stroke-linecap="round" stroke-linejoin="round" d="M188.125,72.774
			c0.039-5.24,0.061-7.994,0.061-8.262c0-3.066-0.24-4.6-0.721-4.6c-0.039,0-0.095,0.022-0.164,0.067
			c-0.07,0.045-0.125,0.067-0.165,0.067c-0.101,0-0.149-0.119-0.149-0.357l0.06-0.134c2.558-2.203,3.897-3.305,4.017-3.305
			c0.699,0,1.049,1.772,1.049,5.315c0,1.965-0.01,4.839-0.029,8.62c-0.021,3.781-0.03,6.641-0.03,8.575l-0.06,0.179l-3.658,3.127
			l-0.15-0.045c-0.561-1.189-1.9-3.108-4.02-5.756c-1.779-2.261-3.269-4.03-4.468-5.31c-1.118-1.159-2.795-2.928-5.031-5.306v8.029
			c0,1.547,0.173,2.766,0.52,3.658c0.122,0.268,0.32,0.506,0.596,0.713c0.275,0.209,0.413,0.373,0.413,0.491
			c-0.02,0.06-0.03,0.104-0.03,0.134c-2.458,2.111-3.698,3.167-3.717,3.167c-0.58,0-1.029-0.685-1.349-2.055
			c-0.24-1.012-0.359-2.054-0.359-3.126c0-9.796,0-12.61,0-8.442c-0.02-4.704-0.146-7.354-0.38-7.95
			c-0.098-0.238-0.215-0.357-0.351-0.357c-0.039,0-0.093,0.022-0.161,0.067c-0.068,0.045-0.112,0.067-0.131,0.067
			c-0.117,0-0.176-0.119-0.176-0.357l0.06-0.134c2.558-2.203,3.897-3.305,4.017-3.305c0.199,0,0.379,0.179,0.54,0.536l0.03,0.045
			c1.458,2.054,3.067,4.035,4.826,5.94c0.1,0.089,1.569,1.623,4.406,4.601c1.191,1.28,1.996,2.144,2.413,2.591
			C186.705,70.944,187.469,71.882,188.125,72.774z"/>
		<path fill="none" stroke="#FBB726" stroke-width="3" stroke-linecap="round" stroke-linejoin="round" d="M211.926,60.537
			c-1.618,2.084-2.428,4.377-2.428,6.878c0,3.126,1.08,5.732,3.238,7.816c1.918,1.847,3.986,2.77,6.205,2.77
			c1.398,0,2.957-0.551,4.676-1.652h0.09c0.1,0,0.15,0.119,0.15,0.357l-0.061,0.133c-2.418,2.085-3.746,3.217-3.986,3.395
			c-1.479,1.014-2.948,1.52-4.406,1.52c-2.319,0-4.487-1.027-6.506-3.082c-2.219-2.263-3.327-5.031-3.327-8.308
			c0-3.513,1.458-6.536,4.376-9.066c2.438-2.114,3.877-3.305,4.317-3.573c1.458-0.982,3.038-1.474,4.736-1.474
			c2.418,0,4.896,0.819,7.435,2.457c0.08,0.06,0.119,0.164,0.119,0.313c-0.02,0.089-0.039,0.149-0.06,0.178l-3.627,3.126h-0.12
			c-2.538-1.608-4.967-2.412-7.284-2.412C213.945,59.912,212.766,60.12,211.926,60.537z"/>
		<path fill="none" stroke="#FBB726" stroke-width="3" stroke-linecap="round" stroke-linejoin="round" d="M239.025,72.194
			c-1.159,0.982-5.355,4.17-12.59,9.559c-0.12,0-0.18-0.119-0.18-0.357l0.06-0.135c1.839-1.607,3.638-3.93,5.396-6.967
			c2.078-3.543,3.118-6.61,3.118-9.201c0-1.28-0.365-2.449-1.095-3.506c-0.729-1.057-1.533-1.585-2.412-1.585
			c-0.461,0-1.061,0.216-1.799,0.647c-0.74,0.432-1.08,0.648-1.02,0.648c-0.101,0-0.15-0.104-0.15-0.313l0.03-0.134
			c1.019-0.923,2.038-1.831,3.058-2.725c1.459-1.19,2.607-1.787,3.447-1.787c1.079,0,2.129,0.886,3.148,2.658
			c1.019,1.772,2.237,4.221,3.656,7.347c1.719,3.692,2.898,6.163,3.537,7.414c0.46,0.923,0.92,1.847,1.379,2.769
			c0.619,1.043,1.26,1.563,1.919,1.563c0.36,0,0.81-0.163,1.349-0.491c0.54-0.327,0.789-0.491,0.75-0.491
			c0.119,0,0.18,0.104,0.18,0.313l-0.061,0.179l-3.627,3.127c-0.819,0.686-1.528,1.027-2.128,1.027
			c-0.839,0-1.669-0.789-2.488-2.367C240.964,76.348,239.805,73.952,239.025,72.194z M237.23,68.308
			c-1.262,2.916-2.941,5.624-5.042,8.122l6.513-4.893C238.08,70.163,237.59,69.086,237.23,68.308z"/>
		<path fill="none" stroke="#FBB726" stroke-width="3" stroke-linecap="round" stroke-linejoin="round" d="M257.252,74.294h9.082
			c0.121,0,0.18,0.105,0.18,0.316c-0.02,0.061-0.029,0.121-0.029,0.181c-2.458,2.11-3.697,3.165-3.717,3.165h-5.516
			c0,2.293-0.121,4.079-0.36,5.359c-0.359,1.936-1.019,3.32-1.979,4.154c-2.658,2.292-4.017,3.438-4.077,3.438
			c-0.1,0-0.149-0.119-0.149-0.356l0.06-0.135c1.119-0.953,1.839-1.995,2.158-3.127c0.28-0.893,0.42-2.427,0.42-4.6V65.584
			c0-1.608-0.689-2.412-2.068-2.412c-1.02,0-1.879,0.284-2.578,0.849c-0.04,0.03-0.07,0.045-0.09,0.045
			c-0.119,0-0.18-0.104-0.18-0.313l0.061-0.178c5.396-4.734,8.253-7.176,8.572-7.325c0.141,0,0.211,0.105,0.211,0.313v3.35h9.861
			c0.101,0,0.15,0.106,0.15,0.317c0,0.091-0.01,0.151-0.029,0.181c-2.439,2.11-3.678,3.165-3.718,3.165h-6.265V74.294z
			 M253.205,59.733l0.119-0.044v-0.045L253.205,59.733z M256.682,56.562l0.359-0.313C257.021,56.28,256.901,56.384,256.682,56.562z"
			/>
		<path fill="none" stroke="#FBB726" stroke-width="3" stroke-linecap="round" stroke-linejoin="round" d="M271.58,65.897h16.758
			c0.119,0,0.18,0.106,0.18,0.317c-0.021,0.091-0.041,0.151-0.061,0.181c-2.438,2.11-3.667,3.165-3.688,3.165h-13.1
			c0.5,2.606,1.719,4.709,3.658,6.309c1.738,1.422,3.606,2.133,5.605,2.133c1.358,0,2.917-0.551,4.676-1.652h0.09
			c0.1,0,0.15,0.119,0.15,0.357l-0.061,0.133c-2.418,2.085-3.757,3.217-4.017,3.395c-1.459,1.014-2.918,1.52-4.376,1.52
			c-2.339,0-4.508-1.012-6.506-3.037c-2.219-2.264-3.327-5.032-3.327-8.308l0.06-1.072v-0.313h0.03
			c0.36-2.948,1.788-5.508,4.286-7.682c2.619-2.233,4.078-3.468,4.377-3.707c1.52-1.012,3.118-1.519,4.797-1.519
			c2.458,0,4.936,0.819,7.434,2.457c0.08,0.03,0.121,0.134,0.121,0.313c0,0.06-0.012,0.12-0.031,0.179l-3.656,3.126h-0.09
			c-2.539-1.608-4.977-2.412-7.314-2.412c-1.319,0-2.539,0.268-3.658,0.804C272.66,62.19,271.88,63.962,271.58,65.897z"/>
	</g>
	<g>
		<path fill="#89232F" d="M69.387,72.418c0.939-0.685,1.659-1.013,2.158-0.983c0.939,0.061,1.349,0.641,1.229,1.742
			c-0.1,0.894-0.45,1.266-1.049,1.117c-0.599-0.119-0.85-0.641-0.749-1.563c0.02-0.327,0.129-0.61,0.33-0.849
			c-0.62,0.03-0.929,0.504-0.929,1.42c0,0.709,0.45,1.493,1.349,2.35c1.739,1.686,3.688,2.527,5.846,2.527
			c1.299,0,2.598-0.311,3.897-0.936c0.1-0.356,0.15-0.758,0.15-1.203c0-0.951-0.28-1.932-0.839-2.941
			c-1.339-2.438-3.697-3.938-7.075-4.502c-1.279-0.237-2.578-0.772-3.897-1.604c-1.759-1.129-2.638-2.376-2.638-3.744
			c0-0.624,0.279-1.188,0.839-1.694c2.318-2.08,3.927-3.387,4.826-3.923c1.559-0.921,3.357-1.382,5.396-1.382
			c1.059,0,2.238,0.149,3.537,0.447c1.519,0.328,2.638,0.759,3.357,1.295c0.06,0.06,0.1,0.164,0.12,0.313l-0.03,0.179l-3.657,3.126
			h-0.09c-2.238-1.131-4.487-1.697-6.745-1.697c-1.279,0-2.488,0.179-3.627,0.536c0.08,1.102,0.959,2.144,2.638,3.126
			c1.279,0.745,2.468,1.206,3.567,1.384c3.957,0.715,6.544,2.635,7.764,5.762c0.32,0.834,0.48,1.638,0.48,2.411
			c0,1.191-0.38,2.13-1.139,2.814c-2.319,2.084-3.957,3.439-4.917,4.064c-1.878,1.221-3.697,1.831-5.456,1.831
			c-2.239,0-4.237-0.863-5.996-2.591c-1.06-1.012-1.589-1.994-1.589-2.947C66.449,75.173,67.428,73.877,69.387,72.418z"/>
		<path fill="#89232F" d="M105.959,81.753c-2.418,0-5.676-3.156-9.772-9.469l-1.169,0.848v5.539l-0.06,0.134L91.3,81.93
			c-0.14,0.029-0.21-0.06-0.21-0.268V65.137c0-1.489-0.659-2.233-1.979-2.233c-0.4,0-0.929,0.142-1.588,0.424
			c-0.66,0.284-0.97,0.424-0.93,0.424c-0.12,0-0.18-0.119-0.18-0.357l0.06-0.134c5.235-4.615,8.014-6.997,8.333-7.146
			c0.14,0.03,0.21,0.149,0.21,0.357v3.707c3.197-2.709,5.715-4.064,7.554-4.064c0.919,0,1.724,0.449,2.413,1.346
			c0.689,0.897,1.034,2.033,1.034,3.408c0,1.585-0.76,3.214-2.278,4.888c-0.419,0.479-1.619,1.57-3.597,3.274
			c3.917,6.039,7.055,9.059,9.413,9.059c0.28,0,0.87-0.224,1.769-0.67c0.12,0,0.18,0.12,0.18,0.357l-0.06,0.134l-3.627,3.127
			C107.258,81.514,106.638,81.753,105.959,81.753z M94.448,56.428l0.36-0.313C94.788,56.145,94.667,56.249,94.448,56.428z
			 M102.092,63.827c0-1.199-0.31-2.174-0.93-2.924c-0.62-0.75-1.339-1.125-2.158-1.125c-1.06,0-2.388,0.48-3.987,1.439v10.619
			c1.439-0.959,2.878-1.934,4.316-2.924C101.173,67.383,102.092,65.688,102.092,63.827z M99.724,68.666l0.03-0.044
			C99.734,68.621,99.724,68.636,99.724,68.666z"/>
		<path fill="#89232F" d="M108.447,64.066c-0.14,0-0.21-0.119-0.21-0.357l0.06-0.134c5.396-4.764,8.253-7.22,8.574-7.37
			c0.06,0.03,0.129,0.149,0.209,0.357v22.063l-3.683,3.127c-0.163,0.029-0.244-0.074-0.244-0.313V65.539
			c0-1.608-0.689-2.412-2.068-2.412c-1.02,0-1.879,0.283-2.578,0.849C108.487,64.006,108.466,64.036,108.447,64.066z
			 M113.033,59.733l0.12-0.044v-0.089L113.033,59.733z M116.511,56.517l0.36-0.313C116.85,56.235,116.73,56.339,116.511,56.517z"/>
		<path fill="#89232F" d="M137.494,46.915c0.06-0.059,0.12-0.104,0.18-0.134c0.14,0,0.21,0.104,0.21,0.313V78.09
			c0.959,0,2.378,0,4.257,0c1.898,0,3.317,0,4.257,0c0.779,0,1.499-0.269,2.158-0.808c0.02-0.028,0.05-0.057,0.09-0.086
			c0.12,0,0.19,0.119,0.21,0.357l-0.06,0.135c-0.02,0.029-1.249,1.087-3.687,3.171c-0.7,0.596-1.469,0.894-2.309,0.894l-8.663-0.045
			c-0.041,0-0.08-0.045-0.12-0.135c-0.04-0.089-0.06-8.59-0.06-25.502c0-1.667-0.509-2.501-1.529-2.501
			c-0.359,0-0.745,0.224-1.154,0.67c-0.41,0.447-0.615,0.909-0.615,1.385c0,0.119,0.02,0.239,0.06,0.357
			c0.259-0.685,0.629-0.894,1.109-0.625c0.399,0.239,0.599,0.67,0.599,1.295c0,0.923-0.3,1.384-0.899,1.384
			c-0.12,0-0.24-0.037-0.36-0.111c-0.12-0.074-0.22-0.171-0.3-0.291c-0.52-0.625-0.779-1.34-0.779-2.144
			c0-1.488,0.649-2.784,1.948-3.885C133.017,50.741,134.836,49.178,137.494,46.915z M137.494,46.915l-0.18,0.134l0.33-0.268
			L137.494,46.915z"/>
		<path fill="#89232F" d="M158.628,72.194c-1.16,0.982-5.356,4.17-12.591,9.559c-0.12,0-0.18-0.119-0.18-0.357l0.06-0.135
			c1.838-1.607,3.637-3.93,5.396-6.967c2.078-3.543,3.118-6.61,3.118-9.201c0-1.28-0.365-2.449-1.094-3.506
			c-0.73-1.057-1.534-1.585-2.413-1.585c-0.46,0-1.06,0.216-1.799,0.647c-0.74,0.432-1.079,0.648-1.019,0.648
			c-0.101,0-0.15-0.104-0.15-0.313l0.03-0.134c1.019-0.923,2.039-1.831,3.058-2.725c1.458-1.19,2.608-1.787,3.447-1.787
			c1.079,0,2.128,0.886,3.148,2.658c1.019,1.772,2.238,4.221,3.657,7.347c1.718,3.692,2.897,6.163,3.537,7.414
			c0.459,0.923,0.919,1.847,1.379,2.769c0.619,1.043,1.259,1.563,1.918,1.563c0.36,0,0.81-0.163,1.349-0.491
			c0.54-0.327,0.789-0.491,0.75-0.491c0.12,0,0.18,0.104,0.18,0.313l-0.06,0.179l-3.627,3.127c-0.82,0.686-1.529,1.027-2.128,1.027
			c-0.839,0-1.669-0.789-2.488-2.367C160.566,76.348,159.407,73.952,158.628,72.194z M156.833,68.308
			c-1.261,2.916-2.941,5.624-5.042,8.122l6.512-4.893C157.683,70.163,157.192,69.086,156.833,68.308z"/>
		<path fill="#89232F" d="M188.125,72.774c0.039-5.24,0.061-7.994,0.061-8.262c0-3.066-0.24-4.6-0.721-4.6
			c-0.039,0-0.095,0.022-0.164,0.067c-0.07,0.045-0.125,0.067-0.165,0.067c-0.101,0-0.149-0.119-0.149-0.357l0.06-0.134
			c2.558-2.203,3.897-3.305,4.017-3.305c0.699,0,1.049,1.772,1.049,5.315c0,1.965-0.01,4.839-0.029,8.62
			c-0.021,3.781-0.03,6.641-0.03,8.575l-0.06,0.179l-3.658,3.127l-0.15-0.045c-0.561-1.189-1.9-3.108-4.02-5.756
			c-1.779-2.261-3.269-4.03-4.468-5.31c-1.118-1.159-2.795-2.928-5.031-5.306v8.029c0,1.547,0.173,2.766,0.52,3.658
			c0.122,0.268,0.32,0.506,0.596,0.713c0.275,0.209,0.413,0.373,0.413,0.491c-0.02,0.06-0.03,0.104-0.03,0.134
			c-2.458,2.111-3.698,3.167-3.717,3.167c-0.58,0-1.029-0.685-1.349-2.055c-0.24-1.012-0.359-2.054-0.359-3.126
			c0-9.796,0-12.61,0-8.442c-0.02-4.704-0.146-7.354-0.38-7.95c-0.098-0.238-0.215-0.357-0.351-0.357
			c-0.039,0-0.093,0.022-0.161,0.067c-0.068,0.045-0.112,0.067-0.131,0.067c-0.117,0-0.176-0.119-0.176-0.357l0.06-0.134
			c2.558-2.203,3.897-3.305,4.017-3.305c0.199,0,0.379,0.179,0.54,0.536l0.03,0.045c1.458,2.054,3.067,4.035,4.826,5.94
			c0.1,0.089,1.569,1.623,4.406,4.601c1.191,1.28,1.996,2.144,2.413,2.591C186.705,70.944,187.469,71.882,188.125,72.774z"/>
		<path fill="#89232F" d="M211.926,60.537c-1.618,2.084-2.428,4.377-2.428,6.878c0,3.126,1.08,5.732,3.238,7.816
			c1.918,1.847,3.986,2.77,6.205,2.77c1.398,0,2.957-0.551,4.676-1.652h0.09c0.1,0,0.15,0.119,0.15,0.357l-0.061,0.133
			c-2.418,2.085-3.746,3.217-3.986,3.395c-1.479,1.014-2.948,1.52-4.406,1.52c-2.319,0-4.487-1.027-6.506-3.082
			c-2.219-2.263-3.327-5.031-3.327-8.308c0-3.513,1.458-6.536,4.376-9.066c2.438-2.114,3.877-3.305,4.317-3.573
			c1.458-0.982,3.038-1.474,4.736-1.474c2.418,0,4.896,0.819,7.435,2.457c0.08,0.06,0.119,0.164,0.119,0.313
			c-0.02,0.089-0.039,0.149-0.06,0.178l-3.627,3.126h-0.12c-2.538-1.608-4.967-2.412-7.284-2.412
			C213.945,59.912,212.766,60.12,211.926,60.537z"/>
		<path fill="#89232F" d="M239.025,72.194c-1.159,0.982-5.355,4.17-12.59,9.559c-0.12,0-0.18-0.119-0.18-0.357l0.06-0.135
			c1.839-1.607,3.638-3.93,5.396-6.967c2.078-3.543,3.118-6.61,3.118-9.201c0-1.28-0.365-2.449-1.095-3.506
			c-0.729-1.057-1.533-1.585-2.412-1.585c-0.461,0-1.061,0.216-1.799,0.647c-0.74,0.432-1.08,0.648-1.02,0.648
			c-0.101,0-0.15-0.104-0.15-0.313l0.03-0.134c1.019-0.923,2.038-1.831,3.058-2.725c1.459-1.19,2.607-1.787,3.447-1.787
			c1.079,0,2.129,0.886,3.148,2.658c1.019,1.772,2.237,4.221,3.656,7.347c1.719,3.692,2.898,6.163,3.537,7.414
			c0.46,0.923,0.92,1.847,1.379,2.769c0.619,1.043,1.26,1.563,1.919,1.563c0.36,0,0.81-0.163,1.349-0.491
			c0.54-0.327,0.789-0.491,0.75-0.491c0.119,0,0.18,0.104,0.18,0.313l-0.061,0.179l-3.627,3.127
			c-0.819,0.686-1.528,1.027-2.128,1.027c-0.839,0-1.669-0.789-2.488-2.367C240.964,76.348,239.805,73.952,239.025,72.194z
			 M237.23,68.308c-1.262,2.916-2.941,5.624-5.042,8.122l6.513-4.893C238.08,70.163,237.59,69.086,237.23,68.308z"/>
		<path fill="#89232F" d="M257.252,74.294h9.082c0.121,0,0.18,0.105,0.18,0.316c-0.02,0.061-0.029,0.121-0.029,0.181
			c-2.458,2.11-3.697,3.165-3.717,3.165h-5.516c0,2.293-0.121,4.079-0.36,5.359c-0.359,1.936-1.019,3.32-1.979,4.154
			c-2.658,2.292-4.017,3.438-4.077,3.438c-0.1,0-0.149-0.119-0.149-0.356l0.06-0.135c1.119-0.953,1.839-1.995,2.158-3.127
			c0.28-0.893,0.42-2.427,0.42-4.6V65.584c0-1.608-0.689-2.412-2.068-2.412c-1.02,0-1.879,0.284-2.578,0.849
			c-0.04,0.03-0.07,0.045-0.09,0.045c-0.119,0-0.18-0.104-0.18-0.313l0.061-0.178c5.396-4.734,8.253-7.176,8.572-7.325
			c0.141,0,0.211,0.105,0.211,0.313v3.35h9.861c0.101,0,0.15,0.106,0.15,0.317c0,0.091-0.01,0.151-0.029,0.181
			c-2.439,2.11-3.678,3.165-3.718,3.165h-6.265V74.294z M253.205,59.733l0.119-0.044v-0.045L253.205,59.733z M256.682,56.562
			l0.359-0.313C257.021,56.28,256.901,56.384,256.682,56.562z"/>
		<path fill="#89232F" d="M271.58,65.897h16.758c0.119,0,0.18,0.106,0.18,0.317c-0.021,0.091-0.041,0.151-0.061,0.181
			c-2.438,2.11-3.667,3.165-3.688,3.165h-13.1c0.5,2.606,1.719,4.709,3.658,6.309c1.738,1.422,3.606,2.133,5.605,2.133
			c1.358,0,2.917-0.551,4.676-1.652h0.09c0.1,0,0.15,0.119,0.15,0.357l-0.061,0.133c-2.418,2.085-3.757,3.217-4.017,3.395
			c-1.459,1.014-2.918,1.52-4.376,1.52c-2.339,0-4.508-1.012-6.506-3.037c-2.219-2.264-3.327-5.032-3.327-8.308l0.06-1.072v-0.313
			h0.03c0.36-2.948,1.788-5.508,4.286-7.682c2.619-2.233,4.078-3.468,4.377-3.707c1.52-1.012,3.118-1.519,4.797-1.519
			c2.458,0,4.936,0.819,7.434,2.457c0.08,0.03,0.121,0.134,0.121,0.313c0,0.06-0.012,0.12-0.031,0.179l-3.656,3.126h-0.09
			c-2.539-1.608-4.977-2.412-7.314-2.412c-1.319,0-2.539,0.268-3.658,0.804C272.66,62.19,271.88,63.962,271.58,65.897z"/>
	</g>
</g>
</svg>
